<svg xmlns="http://www.w3.org/2000/svg" width="880" height="249" viewBox="0 0 880 249" fill="none" role="img" aria-label="113 contributions in the last 12 months">
  <style>
    .f{opacity:0;animation:f .8s ease forwards}@keyframes f{to{opacity:1}}
    .cell{opacity:0;animation:pop .5s ease forwards}
    @keyframes pop{to{opacity:1}}
    .rise{opacity:0;animation:rise .9s cubic-bezier(.2,.7,.2,1) forwards}
    @keyframes rise{from{opacity:0;transform:translateY(8px)}to{opacity:1;transform:none}}
    .d1{animation-delay:.05s}.d2{animation-delay:.25s}.d3{animation-delay:.5s}
    @media (prefers-reduced-motion:reduce){
      .f,.cell,.rise{animation:none;opacity:1;transform:none}}
  </style>
  <rect class="f" x="0.5" y="0.5" width="879" height="248" rx="6" fill="none" stroke="#30363d"/>
  <g class="f d1">
  <path d="M25.3 30.1Q24.6 30.1 24 29.8Q23.4 29.5 23.1 29Q22.8 28.5 22.8 27.7V24.2Q22.8 23.5 23.1 23Q23.4 22.4 24 22.2Q24.6 21.9 25.3 21.9Q26.1 21.9 26.7 22.2Q27.3 22.4 27.6 23Q27.9 23.5 27.9 24.2H26.5Q26.5 23.7 26.2 23.4Q25.9 23.1 25.3 23.1Q24.8 23.1 24.5 23.4Q24.2 23.7 24.2 24.2V27.7Q24.2 28.3 24.5 28.6Q24.8 28.9 25.3 28.9Q25.9 28.9 26.2 28.6Q26.5 28.3 26.5 27.7H27.9Q27.9 28.4 27.6 29Q27.3 29.5 26.7 29.8Q26.1 30.1 25.3 30.1Z M34.9 30.1Q34.1 30.1 33.6 29.8Q33 29.5 32.7 29Q32.4 28.5 32.4 27.7V24.2Q32.4 23.5 32.7 23Q33 22.4 33.6 22.2Q34.1 21.9 34.9 21.9Q35.7 21.9 36.2 22.2Q36.8 22.4 37.1 23Q37.4 23.5 37.4 24.2V27.7Q37.4 28.5 37.1 29Q36.8 29.5 36.2 29.8Q35.7 30.1 34.9 30.1ZM34.9 28.9Q35.5 28.9 35.7 28.6Q36 28.3 36 27.7V24.2Q36 23.7 35.7 23.4Q35.5 23.1 34.9 23.1Q34.3 23.1 34.1 23.4Q33.8 23.7 33.8 24.2V27.7Q33.8 28.3 34.1 28.6Q34.4 28.9 34.9 28.9Z M42 30V22H43.7L45.9 28.5Q45.9 28.1 45.8 27.6Q45.8 27.2 45.8 26.7Q45.8 26.1 45.8 25.8V22H47V30H45.3L43.1 23.5Q43.1 23.8 43.2 24.3Q43.2 24.7 43.2 25.2Q43.2 25.7 43.2 26.1V30Z M53.4 30V23.2H51.3V22H56.9V23.2H54.8V30Z M61.2 30V22H63.8Q64.6 22 65.2 22.3Q65.8 22.6 66.1 23.1Q66.4 23.6 66.4 24.4Q66.4 25.1 66 25.8Q65.6 26.4 64.9 26.6L66.5 30H65L63.6 26.8H62.6V30ZM62.6 25.6H63.8Q64.4 25.6 64.7 25.3Q65 25 65 24.4Q65 23.8 64.7 23.5Q64.4 23.2 63.8 23.2H62.6Z M71 30V28.8H72.6V23.2H71V22H75.6V23.2H74V28.8H75.6V30Z M80.4 30V22H82.9Q84.1 22 84.8 22.5Q85.4 23.1 85.4 24Q85.4 24.6 85.2 25Q85 25.4 84.5 25.6Q84.1 25.8 83.6 25.8V25.8Q84.2 25.8 84.6 26Q85.1 26.2 85.4 26.6Q85.6 27.1 85.6 27.7Q85.6 28.4 85.3 28.9Q85 29.4 84.4 29.7Q83.8 30 83 30ZM81.8 28.9H82.9Q83.5 28.9 83.9 28.5Q84.2 28.2 84.2 27.6Q84.2 27.1 83.9 26.7Q83.5 26.4 82.9 26.4H81.8ZM81.8 25.3H82.9Q83.4 25.3 83.8 25Q84.1 24.7 84.1 24.2Q84.1 23.7 83.8 23.4Q83.4 23.1 82.9 23.1H81.8Z M92.5 30.1Q91.3 30.1 90.7 29.5Q90 28.8 90 27.7V22H91.4V27.7Q91.4 28.3 91.7 28.6Q91.9 28.9 92.5 28.9Q93 28.9 93.3 28.6Q93.6 28.3 93.6 27.7V22H95V27.7Q95 28.8 94.3 29.5Q93.7 30.1 92.5 30.1Z M101.4 30V23.2H99.3V22H104.9V23.2H102.8V30Z M109.4 30V28.8H111V23.2H109.4V22H114V23.2H112.4V28.8H114V30Z M121.3 30.1Q120.5 30.1 120 29.8Q119.4 29.5 119.1 29Q118.8 28.5 118.8 27.7V24.2Q118.8 23.5 119.1 23Q119.4 22.4 120 22.2Q120.5 21.9 121.3 21.9Q122.1 21.9 122.6 22.2Q123.2 22.4 123.5 23Q123.8 23.5 123.8 24.2V27.7Q123.8 28.5 123.5 29Q123.2 29.5 122.6 29.8Q122.1 30.1 121.3 30.1ZM121.3 28.9Q121.9 28.9 122.1 28.6Q122.4 28.3 122.4 27.7V24.2Q122.4 23.7 122.1 23.4Q121.9 23.1 121.3 23.1Q120.7 23.1 120.5 23.4Q120.2 23.7 120.2 24.2V27.7Q120.2 28.3 120.5 28.6Q120.7 28.9 121.3 28.9Z M128.4 30V22H130.1L132.3 28.5Q132.3 28.1 132.2 27.6Q132.2 27.2 132.2 26.7Q132.2 26.1 132.2 25.8V22H133.4V30H131.7L129.5 23.5Q129.5 23.8 129.6 24.3Q129.6 24.7 129.6 25.2Q129.6 25.7 129.6 26.1V30Z M140.5 30.1Q139.7 30.1 139.1 29.8Q138.5 29.6 138.2 29Q137.8 28.5 137.8 27.8H139.2Q139.2 28.3 139.6 28.6Q139.9 28.9 140.5 28.9Q141.1 28.9 141.5 28.6Q141.8 28.4 141.8 27.9Q141.8 27.5 141.6 27.2Q141.3 26.9 140.9 26.7L140 26.5Q139 26.2 138.5 25.6Q138 25 138 24.1Q138 23.4 138.3 22.9Q138.6 22.4 139.2 22.1Q139.7 21.9 140.5 21.9Q141.7 21.9 142.4 22.5Q143 23.1 143.1 24.1H141.7Q141.7 23.6 141.4 23.3Q141.1 23.1 140.5 23.1Q140 23.1 139.7 23.3Q139.4 23.6 139.4 24Q139.4 24.4 139.6 24.7Q139.8 25 140.2 25.1L141.2 25.4Q142.2 25.7 142.7 26.3Q143.2 26.9 143.2 27.8Q143.2 28.5 142.8 29Q142.5 29.5 141.9 29.8Q141.3 30.1 140.5 30.1Z" fill="#8b949e"/>
  <path d="M742.2 30V23.9H743.2V25.1H743.4L743.1 25.8Q743.1 24.8 743.5 24.3Q743.9 23.8 744.8 23.8Q745.7 23.8 746.3 24.4Q746.9 25 746.9 26.1V26.4H745.9V26.1Q745.9 25.4 745.5 25.1Q745.2 24.7 744.6 24.7Q743.9 24.7 743.6 25.1Q743.2 25.4 743.2 26.1V30Z M751.2 30.1Q750.5 30.1 749.9 29.8Q749.4 29.5 749.1 29Q748.8 28.5 748.8 27.8V26.2Q748.8 25.4 749.1 24.9Q749.4 24.4 749.9 24.1Q750.5 23.9 751.2 23.9Q751.9 23.9 752.5 24.1Q753 24.4 753.3 24.9Q753.6 25.4 753.6 26.2V27.8Q753.6 28.5 753.3 29Q753 29.5 752.5 29.8Q751.9 30.1 751.2 30.1ZM751.2 29.2Q751.8 29.2 752.2 28.8Q752.6 28.5 752.6 27.8V26.2Q752.6 25.5 752.2 25.1Q751.8 24.7 751.2 24.7Q750.6 24.7 750.2 25.1Q749.8 25.5 749.8 26.2V27.8Q749.8 28.5 750.2 28.8Q750.6 29.2 751.2 29.2Z M758.9 30Q758.4 30 758 29.8Q757.6 29.6 757.4 29.2Q757.2 28.8 757.2 28.3V22.9H755.1V22H758.2V28.3Q758.2 28.7 758.4 28.9Q758.6 29.1 758.9 29.1H760.8V30Z M765.8 30Q765.3 30 764.9 29.8Q764.5 29.6 764.3 29.2Q764.1 28.8 764.1 28.3V22.9H762V22H765.1V28.3Q765.1 28.7 765.3 28.9Q765.5 29.1 765.8 29.1H767.7V30Z M769.5 30V29.1H771.7V24.9H769.8V23.9H772.7V29.1H774.7V30ZM772.1 22.9Q771.7 22.9 771.5 22.7Q771.3 22.5 771.3 22.2Q771.3 21.8 771.5 21.6Q771.7 21.5 772.1 21.5Q772.4 21.5 772.6 21.6Q772.8 21.8 772.8 22.2Q772.8 22.5 772.6 22.7Q772.4 22.9 772.1 22.9Z M776.5 30V23.9H777.5V25.1H777.7L777.5 25.3Q777.5 24.6 777.9 24.2Q778.4 23.8 779.1 23.8Q780 23.8 780.6 24.4Q781.1 25 781.1 25.9V30H780.1V26Q780.1 25.4 779.8 25Q779.4 24.7 778.8 24.7Q778.2 24.7 777.9 25.1Q777.5 25.4 777.5 26.1V30Z M784.2 32V31.1H786.1Q786.6 31.1 786.8 30.9Q787 30.7 787 30.2V29.4L787 28.4H786.8L787 28.2Q787 28.8 786.6 29.2Q786.1 29.6 785.4 29.6Q784.4 29.6 783.9 29Q783.4 28.4 783.4 27.4V26.1Q783.4 25.1 783.9 24.4Q784.4 23.8 785.4 23.8Q786.1 23.8 786.6 24.2Q787 24.6 787 25.3L786.8 25.1H787V23.9H788V30.2Q788 31 787.5 31.5Q787 32 786.1 32ZM785.7 28.8Q786.3 28.8 786.6 28.4Q787 28 787 27.3V26.1Q787 25.5 786.6 25.1Q786.3 24.7 785.7 24.7Q785.1 24.7 784.7 25.1Q784.4 25.4 784.4 26.1V27.3Q784.4 28 784.7 28.4Q785.1 28.8 785.7 28.8Z M797.2 30V29.1H799.4V22.8L797.2 24.4V23.3L799 22H800.4V29.1H802.1V30Z M804.1 30V29L806.6 26.4Q807.2 25.7 807.5 25.2Q807.8 24.7 807.8 24.2Q807.8 23.5 807.4 23.1Q807 22.7 806.4 22.7Q805.7 22.7 805.3 23.1Q804.9 23.5 804.9 24.2H803.9Q803.9 23.5 804.2 23Q804.5 22.4 805.1 22.1Q805.7 21.9 806.4 21.9Q807.1 21.9 807.6 22.1Q808.2 22.4 808.5 22.9Q808.8 23.5 808.8 24.2Q808.8 24.9 808.4 25.5Q808 26.2 807.2 27.1L805.2 29.1H808.9V30Z M817.6 30V23.9H818.5V24.7H818.7L818.5 24.9Q818.5 24.4 818.8 24.1Q819.1 23.8 819.5 23.8Q820 23.8 820.3 24.2Q820.6 24.6 820.6 25.3L820.3 24.7H820.8L820.6 24.9Q820.6 24.4 820.8 24.1Q821.1 23.8 821.6 23.8Q822.1 23.8 822.5 24.3Q822.8 24.7 822.8 25.4V30H821.9V25.4Q821.9 25 821.7 24.8Q821.5 24.6 821.2 24.6Q820.9 24.6 820.8 24.8Q820.6 25 820.6 25.4V30H819.8V25.4Q819.8 25 819.6 24.8Q819.5 24.6 819.2 24.6Q818.8 24.6 818.7 24.8Q818.5 25 818.5 25.4V30Z M827.1 30.1Q826.4 30.1 825.8 29.8Q825.3 29.5 825 29Q824.7 28.5 824.7 27.8V26.2Q824.7 25.4 825 24.9Q825.3 24.4 825.8 24.1Q826.4 23.9 827.1 23.9Q827.8 23.9 828.4 24.1Q828.9 24.4 829.2 24.9Q829.5 25.4 829.5 26.2V27.8Q829.5 28.5 829.2 29Q828.9 29.5 828.4 29.8Q827.8 30.1 827.1 30.1ZM827.1 29.2Q827.7 29.2 828.1 28.8Q828.5 28.5 828.5 27.8V26.2Q828.5 25.5 828.1 25.1Q827.7 24.7 827.1 24.7Q826.5 24.7 826.1 25.1Q825.7 25.5 825.7 26.2V27.8Q825.7 28.5 826.1 28.8Q826.5 29.2 827.1 29.2Z M831.7 30V23.9H832.7V25.1H832.9L832.7 25.3Q832.7 24.6 833.1 24.2Q833.6 23.8 834.3 23.8Q835.2 23.8 835.8 24.4Q836.3 25 836.3 25.9V30H835.3V26Q835.3 25.4 835 25Q834.6 24.7 834 24.7Q833.4 24.7 833.1 25.1Q832.7 25.4 832.7 26.1V30Z M841.6 30Q840.8 30 840.3 29.6Q839.9 29.2 839.9 28.4V24.9H838.2V23.9H839.9V22.2H840.9V23.9H843.3V24.9H840.9V28.4Q840.9 29.1 841.6 29.1H843.2V30Z M845.5 30V22H846.5V23.9V25.1H846.7L846.5 25.3Q846.5 24.6 846.9 24.2Q847.4 23.8 848.1 23.8Q849 23.8 849.6 24.4Q850.1 25 850.1 25.9V30H849.1V26Q849.1 25.4 848.8 25Q848.4 24.7 847.8 24.7Q847.2 24.7 846.9 25.1Q846.5 25.4 846.5 26.1V30Z M854.5 30.1Q853.9 30.1 853.4 29.9Q853 29.7 852.7 29.4Q852.4 29 852.4 28.5H853.4Q853.4 28.8 853.7 29Q854 29.2 854.5 29.2H855Q855.6 29.2 855.8 29Q856.1 28.7 856.1 28.3Q856.1 28 855.9 27.7Q855.6 27.5 855.1 27.4L854.3 27.3Q853.4 27.1 853 26.7Q852.5 26.3 852.5 25.6Q852.5 24.8 853 24.3Q853.6 23.9 854.6 23.9H855Q855.9 23.9 856.4 24.3Q856.9 24.7 857.1 25.4H856.1Q856 25.1 855.7 24.9Q855.5 24.7 855 24.7H854.6Q854 24.7 853.8 25Q853.5 25.2 853.5 25.6Q853.5 26 853.7 26.1Q854 26.3 854.4 26.4L855.2 26.5Q856.2 26.7 856.7 27.1Q857.1 27.5 857.1 28.3Q857.1 29.1 856.6 29.6Q856.1 30.1 855 30.1Z" fill="#6e7681"/>
  </g>
  <line class="f d1" x1="22" y1="44" x2="858" y2="44" stroke="#30363d" stroke-width="1"/>
  <g class="rise d2">
  <path d="M23.3 66V63.9H26.2V56.5L23.2 58.7V56.2L26 54.3H28.6V63.9H31V66Z M33.2 66V63.9H36.1V56.5L33.1 58.7V56.2L35.9 54.3H38.5V63.9H40.9V66Z M46.5 66.2Q45.3 66.2 44.5 65.8Q43.6 65.3 43.1 64.6Q42.6 63.8 42.6 62.8H45Q45 63.4 45.4 63.8Q45.8 64.2 46.5 64.2Q47.3 64.2 47.7 63.8Q48 63.5 48 62.8V61.8Q48 61.2 47.6 60.8Q47.3 60.5 46.5 60.5H45.2V58.4L47.5 56.3H43.2V54.3H50V56.4L46.5 59.4V58.4Q48.3 58.4 49.4 59.3Q50.4 60.3 50.4 61.8V62.8Q50.4 63.8 50 64.6Q49.5 65.3 48.6 65.8Q47.7 66.2 46.5 66.2Z" fill="#ffffff"/>
  <path d="M61.5 66V60.6H59.8V59.8H64.1V60.6H62.4V66Z M68.4 66.1Q67.8 66.1 67.4 65.9Q66.9 65.7 66.7 65.2Q66.5 64.8 66.5 64.3V61.5Q66.5 61 66.7 60.6Q66.9 60.1 67.4 59.9Q67.8 59.7 68.4 59.7Q68.9 59.7 69.3 59.9Q69.8 60.1 70 60.6Q70.2 61 70.2 61.5V64.3Q70.2 64.8 70 65.2Q69.8 65.7 69.3 65.9Q68.9 66.1 68.4 66.1ZM68.4 65.3Q68.8 65.3 69.1 65Q69.3 64.8 69.3 64.3V61.5Q69.3 61 69.1 60.8Q68.8 60.5 68.4 60.5Q67.9 60.5 67.6 60.8Q67.4 61 67.4 61.5V64.3Q67.4 64.8 67.6 65Q67.9 65.3 68.4 65.3Z M74.3 66V60.6H72.6V59.8H76.9V60.6H75.2V66Z M79 66 80.5 59.8H81.8L83.3 66H82.4L82 64.4H80.3L79.9 66ZM80.4 63.7H81.9L81.4 61.9Q81.3 61.4 81.2 61Q81.2 60.7 81.2 60.6Q81.1 60.7 81.1 61Q81 61.4 80.9 61.9Z M85.9 66V59.8H86.8V65.2H89.6V66Z" fill="#8b949e"/>
  <path d="M117.4 66V63.9H120.3V56.5L117.3 58.7V56.2L120.1 54.3H122.7V63.9H125.1V66Z" fill="#ffffff"/>
  <path d="M136.3 66.1Q135.7 66.1 135.3 65.9Q134.8 65.7 134.6 65.2Q134.4 64.8 134.4 64.3V61.5Q134.4 61 134.6 60.6Q134.8 60.1 135.3 59.9Q135.7 59.7 136.3 59.7Q136.9 59.7 137.3 59.9Q137.7 60.2 137.9 60.6Q138.2 61 138.2 61.5H137.3Q137.3 61 137 60.8Q136.8 60.5 136.3 60.5Q135.8 60.5 135.6 60.8Q135.3 61 135.3 61.5V64.3Q135.3 64.8 135.6 65Q135.8 65.3 136.3 65.3Q136.8 65.3 137 65Q137.3 64.8 137.3 64.3H138.2Q138.2 64.8 137.9 65.2Q137.7 65.6 137.3 65.9Q136.9 66.1 136.3 66.1Z M142.7 66.1Q141.8 66.1 141.3 65.6Q140.8 65.1 140.8 64.3V59.8H141.7V64.3Q141.7 64.7 141.9 65Q142.2 65.3 142.7 65.3Q143.1 65.3 143.4 65Q143.6 64.7 143.6 64.3V59.8H144.5V64.3Q144.5 65.1 144 65.6Q143.5 66.1 142.7 66.1Z M147.2 66V59.8H149.2Q149.7 59.8 150.2 60Q150.6 60.2 150.9 60.7Q151.1 61.1 151.1 61.6Q151.1 62.2 150.8 62.7Q150.5 63.1 149.9 63.3L151.2 66H150.1L149 63.5H148.1V66ZM148.1 62.6H149.2Q149.6 62.6 149.9 62.4Q150.2 62.1 150.2 61.6Q150.2 61.2 149.9 60.9Q149.6 60.6 149.2 60.6H148.1Z M153.6 66V59.8H155.6Q156.1 59.8 156.6 60Q157 60.2 157.3 60.7Q157.5 61.1 157.5 61.6Q157.5 62.2 157.2 62.7Q156.9 63.1 156.3 63.3L157.6 66H156.5L155.4 63.5H154.5V66ZM154.5 62.6H155.6Q156 62.6 156.3 62.4Q156.6 62.1 156.6 61.6Q156.6 61.2 156.3 60.9Q156 60.6 155.6 60.6H154.5Z M160.1 66V59.8H163.7V60.6H161V62.4H163.4V63.2H161V65.2H163.7V66Z M166.4 66V59.8H167.5L169.4 65Q169.3 64.7 169.3 64.4Q169.3 64 169.3 63.7Q169.3 63.3 169.3 63V59.8H170.1V66H169L167.2 60.8Q167.2 61.1 167.2 61.4Q167.2 61.7 167.2 62.1Q167.2 62.4 167.2 62.7V66Z M174.2 66V60.6H172.5V59.8H176.8V60.6H175.1V66Z M187.5 66.1Q186.8 66.1 186.4 65.9Q185.9 65.7 185.7 65.3Q185.5 64.9 185.5 64.4H186.4Q186.4 64.8 186.7 65Q187 65.3 187.5 65.3Q188 65.3 188.3 65Q188.5 64.8 188.5 64.4Q188.5 64 188.3 63.8Q188.2 63.5 187.8 63.4L187 63.2Q186.3 63 186 62.5Q185.6 62.1 185.6 61.4Q185.6 60.9 185.8 60.5Q186.1 60.1 186.5 59.9Q186.9 59.7 187.5 59.7Q188.3 59.7 188.8 60.2Q189.4 60.6 189.4 61.4H188.5Q188.5 61 188.2 60.8Q187.9 60.5 187.5 60.5Q187 60.5 186.8 60.7Q186.5 61 186.5 61.3Q186.5 61.7 186.7 61.9Q186.9 62.2 187.2 62.3L188 62.5Q188.7 62.7 189.1 63.2Q189.4 63.7 189.4 64.3Q189.4 64.9 189.2 65.3Q189 65.7 188.5 65.9Q188.1 66.1 187.5 66.1Z M193.4 66V60.6H191.7V59.8H196V60.6H194.3V66Z M198.4 66V59.8H200.4Q200.9 59.8 201.4 60Q201.8 60.2 202.1 60.7Q202.3 61.1 202.3 61.6Q202.3 62.2 202 62.7Q201.7 63.1 201.1 63.3L202.4 66H201.3L200.2 63.5H199.3V66ZM199.3 62.6H200.4Q200.8 62.6 201.1 62.4Q201.4 62.1 201.4 61.6Q201.4 61.2 201.1 60.9Q200.8 60.6 200.4 60.6H199.3Z M204.9 66V59.8H208.5V60.6H205.8V62.4H208.2V63.2H205.8V65.2H208.5V66Z M210.9 66 212.4 59.8H213.7L215.2 66H214.3L213.9 64.4H212.2L211.8 66ZM212.3 63.7H213.8L213.3 61.9Q213.2 61.4 213.1 61Q213.1 60.7 213.1 60.6Q213 60.7 213 61Q212.9 61.4 212.8 61.9Z M217.6 66V59.8H218.5V62.4H219.4L220.6 59.8H221.6L220.2 62.8L221.7 66H220.7L219.3 63.2H218.5V66Z" fill="#8b949e"/>
  <path d="M250.1 66 254.4 56.6H251.1V58.2H248.7V54.3H256.8V56.6L252.7 66Z" fill="#ffffff"/>
  <path d="M266.5 66V59.8H267.4V65.2H270.2V66Z M274.6 66.1Q274 66.1 273.6 65.9Q273.1 65.7 272.9 65.2Q272.7 64.8 272.7 64.3V61.5Q272.7 61 272.9 60.6Q273.1 60.1 273.6 59.9Q274 59.7 274.6 59.7Q275.1 59.7 275.5 59.9Q276 60.1 276.2 60.6Q276.4 61 276.4 61.5V64.3Q276.4 64.8 276.2 65.2Q276 65.7 275.5 65.9Q275.1 66.1 274.6 66.1ZM274.6 65.3Q275 65.3 275.3 65Q275.5 64.8 275.5 64.3V61.5Q275.5 61 275.3 60.8Q275 60.5 274.6 60.5Q274.1 60.5 273.8 60.8Q273.6 61 273.6 61.5V64.3Q273.6 64.8 273.8 65Q274.1 65.3 274.6 65.3Z M279.1 66V59.8H280.2L282.1 65Q282 64.7 282 64.4Q282 64 282 63.7Q282 63.3 282 63V59.8H282.8V66H281.7L279.9 60.8Q279.9 61.1 279.9 61.4Q279.9 61.7 279.9 62.1Q279.9 62.4 279.9 62.7V66Z M287.4 66.1Q286.8 66.1 286.4 65.9Q285.9 65.7 285.7 65.2Q285.5 64.8 285.5 64.3V61.5Q285.5 61 285.7 60.6Q285.9 60.1 286.4 59.9Q286.8 59.7 287.4 59.7Q288 59.7 288.4 59.9Q288.8 60.2 289 60.6Q289.3 61 289.3 61.5H288.4Q288.4 61 288.1 60.8Q287.9 60.5 287.4 60.5Q286.9 60.5 286.7 60.8Q286.4 61 286.4 61.5V64.3Q286.4 64.8 286.7 65Q286.9 65.3 287.4 65.3Q287.9 65.3 288.1 65Q288.4 64.8 288.4 64.3V63.6H287.2V62.8H289.3V64.3Q289.3 64.8 289 65.2Q288.8 65.6 288.4 65.9Q288 66.1 287.4 66.1Z M292 66V59.8H295.6V60.6H292.9V62.4H295.3V63.2H292.9V65.2H295.6V66Z M300.2 66.1Q299.5 66.1 299.1 65.9Q298.6 65.7 298.4 65.3Q298.2 64.9 298.2 64.4H299.1Q299.1 64.8 299.4 65Q299.7 65.3 300.2 65.3Q300.7 65.3 301 65Q301.2 64.8 301.2 64.4Q301.2 64 301 63.8Q300.9 63.5 300.5 63.4L299.7 63.2Q299 63 298.7 62.5Q298.3 62.1 298.3 61.4Q298.3 60.9 298.5 60.5Q298.8 60.1 299.2 59.9Q299.6 59.7 300.2 59.7Q301 59.7 301.5 60.2Q302.1 60.6 302.1 61.4H301.2Q301.2 61 300.9 60.8Q300.6 60.5 300.2 60.5Q299.7 60.5 299.5 60.7Q299.2 61 299.2 61.3Q299.2 61.7 299.4 61.9Q299.6 62.2 299.9 62.3L300.7 62.5Q301.4 62.7 301.8 63.2Q302.1 63.7 302.1 64.3Q302.1 64.9 301.9 65.3Q301.7 65.7 301.2 65.9Q300.8 66.1 300.2 66.1Z M306.1 66V60.6H304.4V59.8H308.7V60.6H307V66Z M319.4 66.1Q318.7 66.1 318.3 65.9Q317.8 65.7 317.6 65.3Q317.4 64.9 317.4 64.4H318.3Q318.3 64.8 318.6 65Q318.9 65.3 319.4 65.3Q319.9 65.3 320.2 65Q320.4 64.8 320.4 64.4Q320.4 64 320.2 63.8Q320.1 63.5 319.7 63.4L318.9 63.2Q318.2 63 317.9 62.5Q317.5 62.1 317.5 61.4Q317.5 60.9 317.7 60.5Q318 60.1 318.4 59.9Q318.8 59.7 319.4 59.7Q320.2 59.7 320.7 60.2Q321.3 60.6 321.3 61.4H320.4Q320.4 61 320.1 60.8Q319.8 60.5 319.4 60.5Q318.9 60.5 318.7 60.7Q318.4 61 318.4 61.3Q318.4 61.7 318.6 61.9Q318.8 62.2 319.1 62.3L319.9 62.5Q320.6 62.7 321 63.2Q321.3 63.7 321.3 64.3Q321.3 64.9 321.1 65.3Q320.9 65.7 320.4 65.9Q320 66.1 319.4 66.1Z M325.3 66V60.6H323.6V59.8H327.9V60.6H326.2V66Z M330.3 66V59.8H332.3Q332.8 59.8 333.3 60Q333.7 60.2 334 60.7Q334.2 61.1 334.2 61.6Q334.2 62.2 333.9 62.7Q333.6 63.1 333 63.3L334.3 66H333.2L332.1 63.5H331.2V66ZM331.2 62.6H332.3Q332.7 62.6 333 62.4Q333.3 62.1 333.3 61.6Q333.3 61.2 333 60.9Q332.7 60.6 332.3 60.6H331.2Z M336.8 66V59.8H340.4V60.6H337.7V62.4H340.1V63.2H337.7V65.2H340.4V66Z M342.8 66 344.3 59.8H345.6L347.1 66H346.2L345.8 64.4H344.1L343.7 66ZM344.2 63.7H345.7L345.2 61.9Q345.1 61.4 345 61Q345 60.7 344.9 60.6Q344.9 60.7 344.9 61Q344.8 61.4 344.7 61.9Z M349.5 66V59.8H350.4V62.4H351.3L352.5 59.8H353.5L352.1 62.8L353.6 66H352.6L351.2 63.2H350.4V66Z" fill="#8b949e"/>
  <path d="M381.2 66V63.9H384.1V56.5L381.1 58.7V56.2L383.9 54.3H386.5V63.9H388.9V66Z M390.9 66V63.7L394.6 60.2Q395.3 59.5 395.6 59Q395.9 58.4 395.9 57.8Q395.9 57.1 395.6 56.7Q395.2 56.3 394.5 56.3Q393.8 56.3 393.4 56.7Q393 57.2 393 57.9H390.6Q390.6 56.8 391.1 55.9Q391.6 55.1 392.5 54.6Q393.4 54.2 394.6 54.2Q395.7 54.2 396.6 54.6Q397.4 55 397.9 55.8Q398.3 56.5 398.3 57.5Q398.3 58.7 397.8 59.7Q397.2 60.8 396 61.9L393.9 63.8H398.5V66Z" fill="#ffffff"/>
  <path d="M408.1 66V59.8H409.9Q410.8 59.8 411.3 60.2Q411.8 60.6 411.8 61.4Q411.8 61.8 411.7 62.1Q411.5 62.4 411.1 62.6Q410.8 62.8 410.4 62.8V62.7Q410.9 62.7 411.2 62.9Q411.6 63.1 411.8 63.4Q412 63.8 412 64.3Q412 64.8 411.7 65.2Q411.5 65.6 411.1 65.8Q410.7 66 410.1 66ZM409 65.2H410Q410.5 65.2 410.8 64.9Q411.1 64.7 411.1 64.2Q411.1 63.7 410.8 63.5Q410.5 63.2 410 63.2H409ZM409 62.4H409.9Q410.4 62.4 410.7 62.1Q410.9 61.9 410.9 61.5Q410.9 61.1 410.7 60.8Q410.4 60.6 409.9 60.6H409Z M416.3 66.1Q415.5 66.1 415 65.6Q414.5 65.1 414.5 64.3V59.8H415.4V64.3Q415.4 64.7 415.6 65Q415.9 65.3 416.3 65.3Q416.8 65.3 417.1 65Q417.3 64.7 417.3 64.3V59.8H418.2V64.3Q418.2 65.1 417.7 65.6Q417.2 66.1 416.3 66.1Z M422.8 66.1Q422.1 66.1 421.7 65.9Q421.2 65.7 421 65.3Q420.8 64.9 420.8 64.4H421.7Q421.7 64.8 422 65Q422.3 65.3 422.8 65.3Q423.3 65.3 423.6 65Q423.8 64.8 423.8 64.4Q423.8 64 423.6 63.8Q423.5 63.5 423.1 63.4L422.3 63.2Q421.6 63 421.3 62.5Q420.9 62.1 420.9 61.4Q420.9 60.9 421.1 60.5Q421.4 60.1 421.8 59.9Q422.2 59.7 422.8 59.7Q423.6 59.7 424.1 60.2Q424.7 60.6 424.7 61.4H423.8Q423.8 61 423.5 60.8Q423.2 60.5 422.8 60.5Q422.3 60.5 422.1 60.7Q421.8 61 421.8 61.3Q421.8 61.7 422 61.9Q422.2 62.2 422.5 62.3L423.3 62.5Q424 62.7 424.4 63.2Q424.7 63.7 424.7 64.3Q424.7 64.9 424.5 65.3Q424.3 65.7 423.8 65.9Q423.4 66.1 422.8 66.1Z M427.4 66V65.2H428.7V60.6H427.4V59.8H430.9V60.6H429.6V65.2H430.9V66Z M433.8 66V59.8H437.4V60.6H434.7V62.4H437.1V63.2H434.7V65.2H437.4V66Z M442 66.1Q441.3 66.1 440.9 65.9Q440.4 65.7 440.2 65.3Q440 64.9 440 64.4H440.9Q440.9 64.8 441.2 65Q441.5 65.3 442 65.3Q442.5 65.3 442.8 65Q443 64.8 443 64.4Q443 64 442.8 63.8Q442.7 63.5 442.3 63.4L441.5 63.2Q440.8 63 440.5 62.5Q440.1 62.1 440.1 61.4Q440.1 60.9 440.3 60.5Q440.6 60.1 441 59.9Q441.4 59.7 442 59.7Q442.8 59.7 443.3 60.2Q443.9 60.6 443.9 61.4H443Q443 61 442.7 60.8Q442.4 60.5 442 60.5Q441.5 60.5 441.3 60.7Q441 61 441 61.3Q441 61.7 441.2 61.9Q441.4 62.2 441.7 62.3L442.5 62.5Q443.2 62.7 443.6 63.2Q443.9 63.7 443.9 64.3Q443.9 64.9 443.7 65.3Q443.5 65.7 443 65.9Q442.6 66.1 442 66.1Z M447.9 66V60.6H446.2V59.8H450.5V60.6H448.8V66Z M459.3 66V59.8H461Q461.7 59.8 462.1 60Q462.6 60.3 462.8 60.7Q463.1 61.1 463.1 61.7V64.1Q463.1 64.7 462.8 65.1Q462.6 65.5 462.1 65.8Q461.7 66 461 66ZM460.2 65.2H461Q461.5 65.2 461.8 64.9Q462.1 64.6 462.1 64.1V61.7Q462.1 61.2 461.8 60.9Q461.5 60.6 461 60.6H460.2Z M465.4 66 466.9 59.8H468.2L469.7 66H468.8L468.4 64.4H466.7L466.3 66ZM466.8 63.7H468.3L467.8 61.9Q467.7 61.4 467.6 61Q467.6 60.7 467.5 60.6Q467.5 60.7 467.5 61Q467.4 61.4 467.3 61.9Z M473.5 66V63.7L471.6 59.8H472.6L473.7 62.1Q473.8 62.4 473.9 62.6Q473.9 62.8 474 62.9Q474 62.8 474.1 62.6Q474.1 62.4 474.2 62.1L475.3 59.8H476.3L474.4 63.7V66Z" fill="#8b949e"/>
  </g>
  <path class="f d2" d="M60.2 90.1Q59.6 90.1 59.1 89.9Q58.7 89.7 58.5 89.3Q58.2 88.9 58.2 88.4H59Q59 88.9 59.3 89.1Q59.6 89.4 60.2 89.4Q60.7 89.4 61 89.1Q61.3 88.9 61.3 88.4Q61.3 88 61.1 87.7Q60.9 87.5 60.5 87.4L59.7 87.1Q59.1 86.9 58.7 86.4Q58.4 86 58.4 85.4Q58.4 84.9 58.6 84.5Q58.8 84.1 59.2 83.9Q59.6 83.7 60.2 83.7Q61 83.7 61.5 84.2Q62 84.6 62 85.4H61.2Q61.2 84.9 61 84.6Q60.7 84.4 60.2 84.4Q59.7 84.4 59.4 84.6Q59.1 84.9 59.1 85.3Q59.1 85.7 59.4 86Q59.6 86.2 59.9 86.4L60.8 86.6Q61.4 86.8 61.7 87.3Q62.1 87.8 62.1 88.4Q62.1 88.9 61.9 89.3Q61.6 89.7 61.2 89.9Q60.8 90.1 60.2 90.1Z M65.9 90.1Q65.3 90.1 64.9 89.9Q64.5 89.6 64.2 89.2Q64 88.8 64 88.3V87Q64 86.5 64.2 86.1Q64.5 85.7 64.9 85.5Q65.3 85.2 65.9 85.2Q66.4 85.2 66.8 85.5Q67.2 85.7 67.5 86.1Q67.7 86.5 67.7 87V87.8H64.8V88.3Q64.8 88.9 65.1 89.1Q65.3 89.4 65.9 89.4Q66.3 89.4 66.6 89.3Q66.8 89.1 66.9 88.8H67.7Q67.6 89.4 67.1 89.7Q66.6 90.1 65.9 90.1ZM66.9 87.3V87Q66.9 86.5 66.7 86.2Q66.4 85.9 65.9 85.9Q65.3 85.9 65.1 86.2Q64.8 86.5 64.8 87V87.3H67Z M69.8 91.5V85.3H70.5V86.2H70.7L70.5 86.4Q70.5 85.9 70.9 85.6Q71.3 85.2 71.8 85.2Q72.5 85.2 73 85.7Q73.4 86.2 73.4 87V88.3Q73.4 88.9 73.2 89.3Q73 89.7 72.7 89.9Q72.3 90.1 71.8 90.1Q71.3 90.1 70.9 89.8Q70.5 89.5 70.5 88.9L70.7 89.1H70.5L70.5 90.2V91.5ZM71.6 89.4Q72.1 89.4 72.3 89.1Q72.6 88.8 72.6 88.3V87Q72.6 86.5 72.3 86.2Q72.1 85.9 71.6 85.9Q71.1 85.9 70.8 86.2Q70.5 86.5 70.5 87V88.3Q70.5 88.8 70.8 89.1Q71.1 89.4 71.6 89.4Z" fill="#6e7681"/>
  <path class="f d2" d="M114.5 90.1Q114 90.1 113.6 89.9Q113.2 89.7 113 89.3Q112.7 88.9 112.7 88.3V85.5Q112.7 84.9 113 84.5Q113.2 84.1 113.6 83.9Q114 83.7 114.5 83.7Q115.1 83.7 115.5 83.9Q115.9 84.1 116.1 84.5Q116.4 84.9 116.4 85.5V88.3Q116.4 88.9 116.1 89.3Q115.9 89.7 115.5 89.9Q115.1 90.1 114.5 90.1ZM114.5 89.4Q115.1 89.4 115.3 89.1Q115.6 88.8 115.6 88.3V85.5Q115.6 85 115.3 84.7Q115.1 84.4 114.5 84.4Q114.1 84.4 113.8 84.7Q113.5 85 113.5 85.5V88.3Q113.5 88.8 113.8 89.1Q114.1 89.4 114.5 89.4Z M120.3 90.1Q119.7 90.1 119.3 89.9Q118.9 89.7 118.7 89.3Q118.4 88.9 118.4 88.3V87Q118.4 86.5 118.7 86.1Q118.9 85.7 119.3 85.5Q119.7 85.2 120.3 85.2Q121.1 85.2 121.6 85.7Q122.1 86.1 122.1 86.9H121.3Q121.3 86.4 121 86.2Q120.8 85.9 120.3 85.9Q119.8 85.9 119.5 86.2Q119.2 86.5 119.2 87V88.3Q119.2 88.8 119.5 89.1Q119.8 89.4 120.3 89.4Q120.8 89.4 121 89.2Q121.3 88.9 121.3 88.5H122.1Q122.1 89.2 121.6 89.7Q121.1 90.1 120.3 90.1Z M126.5 90Q125.9 90 125.5 89.7Q125.2 89.4 125.2 88.8V86H123.9V85.3H125.2V84H126V85.3H127.8V86H126V88.8Q126 89.3 126.5 89.3H127.7V90Z" fill="#6e7681"/>
  <path class="f d2" d="M167.2 90V83.8H168.2L170.1 89.1Q170.1 88.9 170 88.6Q170 88.3 170 87.9Q170 87.6 170 87.3V83.8H170.7V90H169.7L167.8 84.7Q167.8 84.9 167.9 85.2Q167.9 85.5 167.9 85.9Q167.9 86.2 167.9 86.5V90Z M174.6 90.1Q174.1 90.1 173.7 89.9Q173.3 89.6 173 89.2Q172.8 88.8 172.8 88.3V87Q172.8 86.5 173 86.1Q173.3 85.7 173.7 85.5Q174.1 85.3 174.6 85.3Q175.2 85.3 175.6 85.5Q176 85.7 176.3 86.1Q176.5 86.5 176.5 87V88.3Q176.5 88.8 176.3 89.2Q176 89.6 175.6 89.9Q175.2 90.1 174.6 90.1ZM174.6 89.4Q175.2 89.4 175.4 89.1Q175.7 88.8 175.7 88.3V87Q175.7 86.5 175.4 86.2Q175.2 85.9 174.6 85.9Q174.2 85.9 173.9 86.2Q173.6 86.5 173.6 87V88.3Q173.6 88.8 173.9 89.1Q174.2 89.4 174.6 89.4Z M179.8 90 178.3 85.3H179L180.1 88.5Q180.2 88.8 180.3 89Q180.3 89.3 180.4 89.4Q180.4 89.3 180.5 89Q180.6 88.8 180.6 88.5L181.7 85.3H182.4L180.9 90Z" fill="#6e7681"/>
  <path class="f d2" d="M235.2 90V83.8H236.8Q237.4 83.8 237.8 84Q238.3 84.3 238.5 84.7Q238.8 85.1 238.8 85.7V88.1Q238.8 88.7 238.5 89.1Q238.3 89.5 237.8 89.8Q237.4 90 236.8 90ZM235.9 89.3H236.8Q237.3 89.3 237.7 89Q238 88.7 238 88.1V85.7Q238 85.1 237.7 84.8Q237.3 84.5 236.8 84.5H235.9Z M242.7 90.1Q242.1 90.1 241.7 89.9Q241.3 89.6 241 89.2Q240.8 88.8 240.8 88.3V87Q240.8 86.5 241 86.1Q241.3 85.7 241.7 85.5Q242.1 85.2 242.7 85.2Q243.2 85.2 243.6 85.5Q244 85.7 244.3 86.1Q244.5 86.5 244.5 87V87.8H241.6V88.3Q241.6 88.9 241.9 89.1Q242.1 89.4 242.7 89.4Q243.1 89.4 243.4 89.3Q243.6 89.1 243.7 88.8H244.5Q244.4 89.4 243.9 89.7Q243.4 90.1 242.7 90.1ZM243.7 87.3V87Q243.7 86.5 243.5 86.2Q243.2 85.9 242.7 85.9Q242.1 85.9 241.9 86.2Q241.6 86.5 241.6 87V87.3H243.8Z M248.4 90.1Q247.8 90.1 247.4 89.9Q247 89.7 246.8 89.3Q246.5 88.9 246.5 88.3V87Q246.5 86.5 246.8 86.1Q247 85.7 247.4 85.5Q247.8 85.2 248.4 85.2Q249.2 85.2 249.7 85.7Q250.2 86.1 250.2 86.9H249.4Q249.4 86.4 249.1 86.2Q248.9 85.9 248.4 85.9Q247.9 85.9 247.6 86.2Q247.3 86.5 247.3 87V88.3Q247.3 88.8 247.6 89.1Q247.9 89.4 248.4 89.4Q248.9 89.4 249.1 89.2Q249.4 88.9 249.4 88.5H250.2Q250.2 89.2 249.7 89.7Q249.2 90.1 248.4 90.1Z" fill="#6e7681"/>
  <path class="f d2" d="M291.1 90.1Q290.2 90.1 289.7 89.6Q289.2 89.1 289.2 88.2H289.9Q289.9 88.8 290.2 89.1Q290.6 89.4 291.1 89.4Q291.6 89.4 291.9 89.1Q292.2 88.8 292.2 88.2V84.5H290.8V83.8H293V88.2Q293 89.1 292.5 89.6Q292 90.1 291.1 90.1Z M296.6 90.1Q295.9 90.1 295.5 89.7Q295.1 89.3 295.1 88.7Q295.1 88 295.5 87.7Q295.9 87.3 296.6 87.3H298.1V86.8Q298.1 86.4 297.8 86.1Q297.6 85.9 297.1 85.9Q296.7 85.9 296.4 86.1Q296.1 86.3 296.1 86.6H295.3Q295.4 86 295.9 85.6Q296.4 85.2 297.1 85.2Q297.9 85.2 298.4 85.7Q298.8 86.1 298.8 86.8V90H298.1V89.1H298L298.1 89Q298.1 89.5 297.7 89.8Q297.3 90.1 296.6 90.1ZM296.8 89.5Q297.4 89.5 297.7 89.2Q298.1 88.9 298.1 88.5V87.8H296.6Q296.3 87.8 296 88.1Q295.8 88.3 295.8 88.6Q295.8 89 296.1 89.3Q296.4 89.5 296.8 89.5Z M301 90V85.3H301.7V86.2H301.9L301.7 86.4Q301.7 85.8 302.1 85.5Q302.4 85.2 303 85.2Q303.7 85.2 304.1 85.7Q304.5 86.1 304.5 86.9V90H303.8V86.9Q303.8 86.4 303.5 86.2Q303.2 85.9 302.8 85.9Q302.3 85.9 302 86.2Q301.7 86.5 301.7 87V90Z" fill="#6e7681"/>
  <path class="f d2" d="M344 90V83.8H347.7V84.5H344.8V86.5H347.4V87.2H344.8V90Z M351.4 90.1Q350.9 90.1 350.5 89.9Q350.1 89.6 349.8 89.2Q349.6 88.8 349.6 88.3V87Q349.6 86.5 349.8 86.1Q350.1 85.7 350.5 85.5Q350.9 85.2 351.4 85.2Q352 85.2 352.4 85.5Q352.8 85.7 353.1 86.1Q353.3 86.5 353.3 87V87.8H350.4V88.3Q350.4 88.9 350.7 89.1Q350.9 89.4 351.4 89.4Q351.9 89.4 352.2 89.3Q352.4 89.1 352.5 88.8H353.3Q353.2 89.4 352.7 89.7Q352.2 90.1 351.4 90.1ZM352.5 87.3V87Q352.5 86.5 352.3 86.2Q352 85.9 351.4 85.9Q350.9 85.9 350.7 86.2Q350.4 86.5 350.4 87V87.3H352.6Z M357.4 90.1Q356.8 90.1 356.5 89.8Q356.1 89.5 356.1 88.9L356.3 89.1H356.1V90H355.4V83.8H356.1V85.2L356.1 86.2H356.3L356.1 86.4Q356.1 85.9 356.5 85.6Q356.9 85.2 357.4 85.2Q358.1 85.2 358.6 85.7Q359 86.2 359 87V88.4Q359 89.2 358.6 89.6Q358.1 90.1 357.4 90.1ZM357.2 89.4Q357.7 89.4 357.9 89.1Q358.2 88.8 358.2 88.3V87Q358.2 86.5 357.9 86.2Q357.7 85.9 357.2 85.9Q356.7 85.9 356.4 86.2Q356.1 86.5 356.1 87V88.3Q356.1 88.8 356.4 89.1Q356.7 89.4 357.2 89.4Z" fill="#6e7681"/>
  <path class="f d2" d="M398.2 90V83.8H399.2L399.9 85.8Q400 86.1 400.1 86.3Q400.1 86.6 400.2 86.8Q400.2 86.6 400.3 86.3Q400.4 86.1 400.4 85.8L401.1 83.8H402.1V90H401.3V87.7Q401.3 87.4 401.3 86.9Q401.4 86.4 401.4 85.9Q401.4 85.4 401.5 85Q401.5 84.5 401.6 84.2L400.6 87.3H399.8L398.7 84.2Q398.8 84.5 398.8 84.9Q398.9 85.4 398.9 85.9Q398.9 86.4 399 86.8Q399 87.3 399 87.7V90Z M405.4 90.1Q404.7 90.1 404.3 89.7Q403.9 89.3 403.9 88.7Q403.9 88 404.3 87.7Q404.7 87.3 405.4 87.3H406.9V86.8Q406.9 86.4 406.6 86.1Q406.4 85.9 405.9 85.9Q405.5 85.9 405.2 86.1Q404.9 86.3 404.9 86.6H404.1Q404.2 86 404.7 85.6Q405.2 85.2 405.9 85.2Q406.7 85.2 407.2 85.7Q407.6 86.1 407.6 86.8V90H406.9V89.1H406.8L406.9 89Q406.9 89.5 406.5 89.8Q406.1 90.1 405.4 90.1ZM405.6 89.5Q406.2 89.5 406.5 89.2Q406.9 88.9 406.9 88.5V87.8H405.4Q405.1 87.8 404.8 88.1Q404.6 88.3 404.6 88.6Q404.6 89 404.9 89.3Q405.2 89.5 405.6 89.5Z M409.9 90V85.3H410.7V86.2H410.9L410.6 86.8Q410.6 86 411 85.6Q411.3 85.2 411.9 85.2Q412.7 85.2 413.1 85.7Q413.5 86.2 413.5 87V87.2H412.8V87Q412.8 86.5 412.5 86.2Q412.2 85.9 411.7 85.9Q411.3 85.9 411 86.2Q410.7 86.5 410.7 87V90Z" fill="#6e7681"/>
  <path class="f d2" d="M466 90 467.6 83.8H468.7L470.3 90H469.5L469.1 88.4H467.2L466.8 90ZM467.4 87.7H468.9L468.5 85.8Q468.3 85.2 468.2 84.9Q468.2 84.5 468.1 84.4Q468.1 84.5 468.1 84.9Q468 85.2 467.8 85.8Z M472.1 91.5V85.3H472.8V86.2H473L472.8 86.4Q472.8 85.9 473.2 85.6Q473.6 85.2 474.1 85.2Q474.8 85.2 475.3 85.7Q475.7 86.2 475.7 87V88.3Q475.7 88.9 475.5 89.3Q475.3 89.7 475 89.9Q474.6 90.1 474.1 90.1Q473.6 90.1 473.2 89.8Q472.8 89.5 472.8 88.9L473 89.1H472.8L472.8 90.2V91.5ZM473.9 89.4Q474.4 89.4 474.6 89.1Q474.9 88.8 474.9 88.3V87Q474.9 86.5 474.6 86.2Q474.4 85.9 473.9 85.9Q473.4 85.9 473.1 86.2Q472.8 86.5 472.8 87V88.3Q472.8 88.8 473.1 89.1Q473.4 89.4 473.9 89.4Z M477.9 90V85.3H478.7V86.2H478.9L478.6 86.8Q478.6 86 479 85.6Q479.3 85.2 479.9 85.2Q480.7 85.2 481.1 85.7Q481.5 86.2 481.5 87V87.2H480.8V87Q480.8 86.5 480.5 86.2Q480.2 85.9 479.7 85.9Q479.3 85.9 479 86.2Q478.7 86.5 478.7 87V90Z" fill="#6e7681"/>
  <path class="f d2" d="M520.6 90V83.8H521.6L522.3 85.8Q522.4 86.1 522.5 86.3Q522.5 86.6 522.6 86.8Q522.6 86.6 522.7 86.3Q522.8 86.1 522.8 85.8L523.5 83.8H524.5V90H523.7V87.7Q523.7 87.4 523.7 86.9Q523.8 86.4 523.8 85.9Q523.8 85.4 523.9 85Q523.9 84.5 524 84.2L523 87.3H522.2L521.1 84.2Q521.2 84.5 521.2 84.9Q521.3 85.4 521.3 85.9Q521.3 86.4 521.4 86.8Q521.4 87.3 521.4 87.7V90Z M527.8 90.1Q527.1 90.1 526.7 89.7Q526.3 89.3 526.3 88.7Q526.3 88 526.7 87.7Q527.1 87.3 527.8 87.3H529.3V86.8Q529.3 86.4 529 86.1Q528.8 85.9 528.3 85.9Q527.9 85.9 527.6 86.1Q527.3 86.3 527.3 86.6H526.5Q526.6 86 527.1 85.6Q527.6 85.2 528.3 85.2Q529.1 85.2 529.6 85.7Q530 86.1 530 86.8V90H529.3V89.1H529.2L529.3 89Q529.3 89.5 528.9 89.8Q528.5 90.1 527.8 90.1ZM528 89.5Q528.6 89.5 528.9 89.2Q529.3 88.9 529.3 88.5V87.8H527.8Q527.5 87.8 527.2 88.1Q527 88.3 527 88.6Q527 89 527.3 89.3Q527.6 89.5 528 89.5Z M532.9 91.5 533.6 89.7 531.9 85.3H532.7L533.8 88.2Q533.9 88.4 533.9 88.6Q534 88.8 534 88.9Q534 88.8 534.1 88.6Q534.1 88.4 534.2 88.2L535.2 85.3H536L533.7 91.5Z" fill="#6e7681"/>
  <path class="f d2" d="M590.3 90.1Q589.4 90.1 588.9 89.6Q588.4 89.1 588.4 88.2H589.1Q589.1 88.8 589.4 89.1Q589.8 89.4 590.3 89.4Q590.8 89.4 591.1 89.1Q591.4 88.8 591.4 88.2V84.5H590V83.8H592.2V88.2Q592.2 89.1 591.7 89.6Q591.2 90.1 590.3 90.1Z M596.2 90.1Q595.4 90.1 594.9 89.6Q594.5 89.1 594.5 88.3V85.3H595.2V88.3Q595.2 88.8 595.5 89.1Q595.8 89.4 596.2 89.4Q596.7 89.4 597 89.1Q597.3 88.8 597.3 88.3V85.3H598V88.3Q598 89.1 597.5 89.6Q597 90.1 596.2 90.1Z M600.2 90V85.3H600.9V86.2H601.1L600.9 86.4Q600.9 85.8 601.3 85.5Q601.6 85.2 602.2 85.2Q602.9 85.2 603.3 85.7Q603.7 86.1 603.7 86.9V90H603V86.9Q603 86.4 602.7 86.2Q602.4 85.9 602 85.9Q601.5 85.9 601.2 86.2Q600.9 86.5 600.9 87V90Z" fill="#6e7681"/>
  <path class="f d2" d="M644.7 90.1Q643.8 90.1 643.3 89.6Q642.8 89.1 642.8 88.2H643.5Q643.5 88.8 643.8 89.1Q644.2 89.4 644.7 89.4Q645.2 89.4 645.5 89.1Q645.8 88.8 645.8 88.2V84.5H644.4V83.8H646.6V88.2Q646.6 89.1 646.1 89.6Q645.6 90.1 644.7 90.1Z M650.6 90.1Q649.8 90.1 649.3 89.6Q648.9 89.1 648.9 88.3V85.3H649.6V88.3Q649.6 88.8 649.9 89.1Q650.2 89.4 650.6 89.4Q651.1 89.4 651.4 89.1Q651.7 88.8 651.7 88.3V85.3H652.4V88.3Q652.4 89.1 651.9 89.6Q651.4 90.1 650.6 90.1Z M657 90Q656.6 90 656.3 89.8Q656 89.7 655.8 89.4Q655.6 89.1 655.6 88.7V84.5H654.1V83.8H656.4V88.7Q656.4 89 656.6 89.1Q656.7 89.3 657 89.3H658.5V90Z" fill="#6e7681"/>
  <path class="f d2" d="M697.2 90 698.8 83.8H699.9L701.5 90H700.7L700.3 88.4H698.4L698 90ZM698.6 87.7H700.1L699.7 85.8Q699.5 85.2 699.4 84.9Q699.4 84.5 699.3 84.4Q699.3 84.5 699.3 84.9Q699.2 85.2 699 85.8Z M705 90.1Q704.2 90.1 703.7 89.6Q703.3 89.1 703.3 88.3V85.3H704V88.3Q704 88.8 704.3 89.1Q704.6 89.4 705 89.4Q705.5 89.4 705.8 89.1Q706.1 88.8 706.1 88.3V85.3H706.8V88.3Q706.8 89.1 706.3 89.6Q705.8 90.1 705 90.1Z M709.6 91.5V90.8H711.1Q711.4 90.8 711.6 90.7Q711.7 90.5 711.7 90.2V89.6L711.8 88.7H711.6L711.8 88.6Q711.8 89.1 711.4 89.4Q711.1 89.7 710.5 89.7Q709.8 89.7 709.4 89.2Q708.9 88.8 708.9 88V87Q708.9 86.2 709.4 85.7Q709.8 85.2 710.5 85.2Q711.1 85.2 711.4 85.5Q711.8 85.8 711.8 86.3L711.6 86.2H711.8V85.3H712.5V90.2Q712.5 90.8 712.1 91.2Q711.7 91.5 711 91.5ZM710.7 89Q711.2 89 711.5 88.7Q711.8 88.4 711.8 87.9V87Q711.8 86.5 711.5 86.2Q711.2 85.9 710.7 85.9Q710.2 85.9 710 86.2Q709.7 86.5 709.7 87V87.9Q709.7 88.5 710 88.8Q710.2 89 710.7 89Z" fill="#6e7681"/>
  <path class="f d2" d="M12.6 120.6V114.8H13.6L14.2 116.6Q14.2 116.9 14.3 117.2Q14.4 117.4 14.4 117.5Q14.5 117.4 14.5 117.2Q14.6 116.9 14.7 116.6L15.2 114.8H16.2V120.6H15.5V118.5Q15.5 118.1 15.5 117.7Q15.5 117.2 15.6 116.8Q15.6 116.3 15.7 115.9Q15.7 115.4 15.7 115.1L14.8 118H14L13.1 115.1Q13.1 115.4 13.2 115.8Q13.2 116.3 13.2 116.7Q13.3 117.2 13.3 117.6Q13.3 118.1 13.3 118.5V120.6Z M19.5 120.7Q19 120.7 18.6 120.5Q18.2 120.3 18 119.9Q17.8 119.5 17.8 119V117.8Q17.8 117.3 18 116.9Q18.2 116.5 18.6 116.3Q19 116.1 19.5 116.1Q20 116.1 20.4 116.3Q20.8 116.5 21 116.9Q21.2 117.3 21.2 117.8V119Q21.2 119.5 21 119.9Q20.8 120.3 20.4 120.5Q20 120.7 19.5 120.7ZM19.5 120Q20 120 20.2 119.8Q20.5 119.5 20.5 119V117.8Q20.5 117.3 20.2 117Q20 116.8 19.5 116.8Q19 116.8 18.8 117Q18.5 117.3 18.5 117.8V119Q18.5 119.5 18.8 119.8Q19 120 19.5 120Z M22.9 120.6V116.2H23.7V117H23.8L23.7 117.2Q23.7 116.7 24 116.4Q24.3 116.1 24.8 116.1Q25.5 116.1 25.9 116.5Q26.3 116.9 26.3 117.6V120.6H25.6V117.7Q25.6 117.2 25.3 117Q25.1 116.7 24.6 116.7Q24.2 116.7 23.9 117Q23.7 117.3 23.7 117.8V120.6Z" fill="#6e7681"/>
  <path class="f d2" d="M12.9 147.8 12.2 142H12.9L13.3 146.3Q13.3 146.5 13.4 146.6Q13.4 146.8 13.4 147Q13.4 147.2 13.4 147.3Q13.4 147.2 13.4 147Q13.4 146.8 13.5 146.6Q13.5 146.5 13.5 146.3L14 142H14.8L15.3 146.3Q15.3 146.5 15.3 146.6Q15.4 146.8 15.4 147Q15.4 147.2 15.4 147.3Q15.4 147.2 15.4 147Q15.4 146.8 15.5 146.6Q15.5 146.5 15.5 146.3L15.9 142H16.6L15.9 147.8H15L14.5 143.4Q14.5 143.2 14.5 143Q14.5 142.9 14.4 142.7Q14.4 142.6 14.4 142.5Q14.4 142.6 14.4 142.7Q14.4 142.9 14.4 143Q14.3 143.2 14.3 143.4L13.8 147.8Z M19.5 147.9Q19 147.9 18.6 147.7Q18.2 147.5 18 147.1Q17.8 146.7 17.8 146.2V145Q17.8 144.5 18 144.1Q18.2 143.7 18.6 143.5Q19 143.3 19.5 143.3Q20 143.3 20.4 143.5Q20.8 143.7 21 144.1Q21.2 144.5 21.2 145V145.8H18.5V146.2Q18.5 146.7 18.7 147Q19 147.3 19.5 147.3Q19.9 147.3 20.2 147.1Q20.4 147 20.5 146.7H21.2Q21.1 147.2 20.7 147.6Q20.2 147.9 19.5 147.9ZM20.5 145.3V145Q20.5 144.5 20.3 144.2Q20 143.9 19.5 143.9Q19 143.9 18.7 144.2Q18.5 144.5 18.5 145V145.2H20.6Z M24.3 147.9Q23.7 147.9 23.3 147.4Q22.9 147 22.9 146.2V145Q22.9 144.2 23.3 143.8Q23.7 143.3 24.3 143.3Q24.9 143.3 25.2 143.6Q25.5 143.9 25.5 144.4L25.4 144.2H25.6L25.5 143.2V142H26.3V147.8H25.5V147H25.4L25.5 146.8Q25.5 147.3 25.2 147.6Q24.9 147.9 24.3 147.9ZM24.6 147.3Q25 147.3 25.3 147Q25.5 146.7 25.5 146.2V145Q25.5 144.5 25.3 144.2Q25 143.9 24.6 143.9Q24.1 143.9 23.9 144.2Q23.6 144.5 23.6 145V146.2Q23.6 146.7 23.9 147Q24.1 147.3 24.6 147.3Z" fill="#6e7681"/>
  <path class="f d2" d="M12.8 175V169.2H16.2V169.8H13.5V171.8H16V172.4H13.5V175Z M18 175V170.6H18.7V171.4H18.9L18.6 172Q18.6 171.2 18.9 170.9Q19.2 170.5 19.9 170.5Q20.5 170.5 21 171Q21.4 171.4 21.4 172.1V172.4H20.7V172.2Q20.7 171.7 20.4 171.4Q20.1 171.1 19.7 171.1Q19.2 171.1 19 171.4Q18.7 171.7 18.7 172.2V175Z M22.9 175V174.3H24.4V171.3H23.1V170.6H25.2V174.3H26.6V175ZM24.7 169.8Q24.5 169.8 24.3 169.7Q24.2 169.5 24.2 169.3Q24.2 169.1 24.3 168.9Q24.5 168.8 24.7 168.8Q25 168.8 25.1 168.9Q25.3 169.1 25.3 169.3Q25.3 169.5 25.1 169.7Q25 169.8 24.7 169.8Z" fill="#6e7681"/>
  <rect class="cell" x="44.0" y="98.0" width="11" height="11" rx="2.5" fill="#ffffff" fill-opacity="0.07" style="animation-delay:0.35s"/>
  <rect class="cell" x="44.0" y="111.6" width="11" height="11" rx="2.5" fill="#ffffff" fill-opacity="0.07" style="animation-delay:0.35s"/>
  <rect class="cell" x="44.0" y="125.2" width="11" height="11" rx="2.5" fill="#ffffff" fill-opacity="0.07" style="animation-delay:0.35s"/>
  <rect class="cell" x="44.0" y="138.8" width="11" height="11" rx="2.5" fill="#ffffff" fill-opacity="0.07" style="animation-delay:0.35s"/>
  <rect class="cell" x="44.0" y="152.4" width="11" height="11" rx="2.5" fill="#ffffff" fill-opacity="0.07" style="animation-delay:0.35s"/>
  <rect class="cell" x="44.0" y="166.0" width="11" height="11" rx="2.5" fill="#ffffff" fill-opacity="0.07" style="animation-delay:0.35s"/>
  <rect class="cell" x="44.0" y="179.6" width="11" height="11" rx="2.5" fill="#ffffff" fill-opacity="0.07" style="animation-delay:0.35s"/>
  <rect class="cell" x="57.6" y="98.0" width="11" height="11" rx="2.5" fill="#ffffff" fill-opacity="0.07" style="animation-delay:0.36s"/>
  <rect class="cell" x="57.6" y="111.6" width="11" height="11" rx="2.5" fill="#ffffff" fill-opacity="0.07" style="animation-delay:0.36s"/>
  <rect class="cell" x="57.6" y="125.2" width="11" height="11" rx="2.5" fill="#ffffff" fill-opacity="0.07" style="animation-delay:0.36s"/>
  <rect class="cell" x="57.6" y="138.8" width="11" height="11" rx="2.5" fill="#ffffff" fill-opacity="0.07" style="animation-delay:0.36s"/>
  <rect class="cell" x="57.6" y="152.4" width="11" height="11" rx="2.5" fill="#ffffff" fill-opacity="0.07" style="animation-delay:0.36s"/>
  <rect class="cell" x="57.6" y="166.0" width="11" height="11" rx="2.5" fill="#ffffff" fill-opacity="0.07" style="animation-delay:0.36s"/>
  <rect class="cell" x="57.6" y="179.6" width="11" height="11" rx="2.5" fill="#ffffff" fill-opacity="0.07" style="animation-delay:0.36s"/>
  <rect class="cell" x="71.2" y="98.0" width="11" height="11" rx="2.5" fill="#ffffff" fill-opacity="0.07" style="animation-delay:0.36s"/>
  <rect class="cell" x="71.2" y="111.6" width="11" height="11" rx="2.5" fill="#ffffff" fill-opacity="0.07" style="animation-delay:0.36s"/>
  <rect class="cell" x="71.2" y="125.2" width="11" height="11" rx="2.5" fill="#ffffff" fill-opacity="0.07" style="animation-delay:0.36s"/>
  <rect class="cell" x="71.2" y="138.8" width="11" height="11" rx="2.5" fill="#ffffff" fill-opacity="0.07" style="animation-delay:0.36s"/>
  <rect class="cell" x="71.2" y="152.4" width="11" height="11" rx="2.5" fill="#ffffff" fill-opacity="0.07" style="animation-delay:0.36s"/>
  <rect class="cell" x="71.2" y="166.0" width="11" height="11" rx="2.5" fill="#ffffff" fill-opacity="0.07" style="animation-delay:0.36s"/>
  <rect class="cell" x="71.2" y="179.6" width="11" height="11" rx="2.5" fill="#ffffff" fill-opacity="0.07" style="animation-delay:0.36s"/>
  <rect class="cell" x="84.8" y="98.0" width="11" height="11" rx="2.5" fill="#ffffff" fill-opacity="0.07" style="animation-delay:0.37s"/>
  <rect class="cell" x="84.8" y="111.6" width="11" height="11" rx="2.5" fill="#ffffff" fill-opacity="0.07" style="animation-delay:0.37s"/>
  <rect class="cell" x="84.8" y="125.2" width="11" height="11" rx="2.5" fill="#ffffff" fill-opacity="0.07" style="animation-delay:0.37s"/>
  <rect class="cell" x="84.8" y="138.8" width="11" height="11" rx="2.5" fill="#ffffff" fill-opacity="0.07" style="animation-delay:0.37s"/>
  <rect class="cell" x="84.8" y="152.4" width="11" height="11" rx="2.5" fill="#ffffff" fill-opacity="0.07" style="animation-delay:0.37s"/>
  <rect class="cell" x="84.8" y="166.0" width="11" height="11" rx="2.5" fill="#ffffff" fill-opacity="0.07" style="animation-delay:0.37s"/>
  <rect class="cell" x="84.8" y="179.6" width="11" height="11" rx="2.5" fill="#ffffff" fill-opacity="0.07" style="animation-delay:0.37s"/>
  <rect class="cell" x="98.4" y="98.0" width="11" height="11" rx="2.5" fill="#ffffff" fill-opacity="0.07" style="animation-delay:0.38s"/>
  <rect class="cell" x="98.4" y="111.6" width="11" height="11" rx="2.5" fill="#ffffff" fill-opacity="0.07" style="animation-delay:0.38s"/>
  <rect class="cell" x="98.4" y="125.2" width="11" height="11" rx="2.5" fill="#ffffff" fill-opacity="0.07" style="animation-delay:0.38s"/>
  <rect class="cell" x="98.4" y="138.8" width="11" height="11" rx="2.5" fill="#ffffff" fill-opacity="0.07" style="animation-delay:0.38s"/>
  <rect class="cell" x="98.4" y="152.4" width="11" height="11" rx="2.5" fill="#ffffff" fill-opacity="0.07" style="animation-delay:0.38s"/>
  <rect class="cell" x="98.4" y="166.0" width="11" height="11" rx="2.5" fill="#ffffff" fill-opacity="0.07" style="animation-delay:0.38s"/>
  <rect class="cell" x="98.4" y="179.6" width="11" height="11" rx="2.5" fill="#ffffff" fill-opacity="0.07" style="animation-delay:0.38s"/>
  <rect class="cell" x="112.0" y="98.0" width="11" height="11" rx="2.5" fill="#ffffff" fill-opacity="0.07" style="animation-delay:0.39s"/>
  <rect class="cell" x="112.0" y="111.6" width="11" height="11" rx="2.5" fill="#ffffff" fill-opacity="0.07" style="animation-delay:0.39s"/>
  <rect class="cell" x="112.0" y="125.2" width="11" height="11" rx="2.5" fill="#ffffff" fill-opacity="0.07" style="animation-delay:0.39s"/>
  <rect class="cell" x="112.0" y="138.8" width="11" height="11" rx="2.5" fill="#ffffff" fill-opacity="0.07" style="animation-delay:0.39s"/>
  <rect class="cell" x="112.0" y="152.4" width="11" height="11" rx="2.5" fill="#ffffff" fill-opacity="0.07" style="animation-delay:0.39s"/>
  <rect class="cell" x="112.0" y="166.0" width="11" height="11" rx="2.5" fill="#ffffff" fill-opacity="0.07" style="animation-delay:0.39s"/>
  <rect class="cell" x="112.0" y="179.6" width="11" height="11" rx="2.5" fill="#ffffff" fill-opacity="0.07" style="animation-delay:0.39s"/>
  <rect class="cell" x="125.6" y="98.0" width="11" height="11" rx="2.5" fill="#ffffff" fill-opacity="0.07" style="animation-delay:0.39s"/>
  <rect class="cell" x="125.6" y="111.6" width="11" height="11" rx="2.5" fill="#ffffff" fill-opacity="0.07" style="animation-delay:0.39s"/>
  <rect class="cell" x="125.6" y="125.2" width="11" height="11" rx="2.5" fill="#ffffff" fill-opacity="0.07" style="animation-delay:0.39s"/>
  <rect class="cell" x="125.6" y="138.8" width="11" height="11" rx="2.5" fill="#ffffff" fill-opacity="0.07" style="animation-delay:0.39s"/>
  <rect class="cell" x="125.6" y="152.4" width="11" height="11" rx="2.5" fill="#ffffff" fill-opacity="0.07" style="animation-delay:0.39s"/>
  <rect class="cell" x="125.6" y="166.0" width="11" height="11" rx="2.5" fill="#ffffff" fill-opacity="0.07" style="animation-delay:0.39s"/>
  <rect class="cell" x="125.6" y="179.6" width="11" height="11" rx="2.5" fill="#ffffff" fill-opacity="0.07" style="animation-delay:0.39s"/>
  <rect class="cell" x="139.2" y="98.0" width="11" height="11" rx="2.5" fill="#ffffff" fill-opacity="0.07" style="animation-delay:0.40s"/>
  <rect class="cell" x="139.2" y="111.6" width="11" height="11" rx="2.5" fill="#ffffff" fill-opacity="0.07" style="animation-delay:0.40s"/>
  <rect class="cell" x="139.2" y="125.2" width="11" height="11" rx="2.5" fill="#ffffff" fill-opacity="0.07" style="animation-delay:0.40s"/>
  <rect class="cell" x="139.2" y="138.8" width="11" height="11" rx="2.5" fill="#ffffff" fill-opacity="0.07" style="animation-delay:0.40s"/>
  <rect class="cell" x="139.2" y="152.4" width="11" height="11" rx="2.5" fill="#ffffff" fill-opacity="0.07" style="animation-delay:0.40s"/>
  <rect class="cell" x="139.2" y="166.0" width="11" height="11" rx="2.5" fill="#ffffff" fill-opacity="0.07" style="animation-delay:0.40s"/>
  <rect class="cell" x="139.2" y="179.6" width="11" height="11" rx="2.5" fill="#ffffff" fill-opacity="0.07" style="animation-delay:0.40s"/>
  <rect class="cell" x="152.8" y="98.0" width="11" height="11" rx="2.5" fill="#ffffff" fill-opacity="0.07" style="animation-delay:0.41s"/>
  <rect class="cell" x="152.8" y="111.6" width="11" height="11" rx="2.5" fill="#ffffff" fill-opacity="0.07" style="animation-delay:0.41s"/>
  <rect class="cell" x="152.8" y="125.2" width="11" height="11" rx="2.5" fill="#ffffff" fill-opacity="0.07" style="animation-delay:0.41s"/>
  <rect class="cell" x="152.8" y="138.8" width="11" height="11" rx="2.5" fill="#ffffff" fill-opacity="0.07" style="animation-delay:0.41s"/>
  <rect class="cell" x="152.8" y="152.4" width="11" height="11" rx="2.5" fill="#ffffff" fill-opacity="0.07" style="animation-delay:0.41s"/>
  <rect class="cell" x="152.8" y="166.0" width="11" height="11" rx="2.5" fill="#ffffff" fill-opacity="0.07" style="animation-delay:0.41s"/>
  <rect class="cell" x="152.8" y="179.6" width="11" height="11" rx="2.5" fill="#ffffff" fill-opacity="0.07" style="animation-delay:0.41s"/>
  <rect class="cell" x="166.4" y="98.0" width="11" height="11" rx="2.5" fill="#ffffff" fill-opacity="0.07" style="animation-delay:0.41s"/>
  <rect class="cell" x="166.4" y="111.6" width="11" height="11" rx="2.5" fill="#ffffff" fill-opacity="0.07" style="animation-delay:0.41s"/>
  <rect class="cell" x="166.4" y="125.2" width="11" height="11" rx="2.5" fill="#ffffff" fill-opacity="0.07" style="animation-delay:0.41s"/>
  <rect class="cell" x="166.4" y="138.8" width="11" height="11" rx="2.5" fill="#ffffff" fill-opacity="0.07" style="animation-delay:0.41s"/>
  <rect class="cell" x="166.4" y="152.4" width="11" height="11" rx="2.5" fill="#ffffff" fill-opacity="0.07" style="animation-delay:0.41s"/>
  <rect class="cell" x="166.4" y="166.0" width="11" height="11" rx="2.5" fill="#ffffff" fill-opacity="0.07" style="animation-delay:0.41s"/>
  <rect class="cell" x="166.4" y="179.6" width="11" height="11" rx="2.5" fill="#ffffff" fill-opacity="0.07" style="animation-delay:0.41s"/>
  <rect class="cell" x="180.0" y="98.0" width="11" height="11" rx="2.5" fill="#ffffff" fill-opacity="0.07" style="animation-delay:0.42s"/>
  <rect class="cell" x="180.0" y="111.6" width="11" height="11" rx="2.5" fill="#ffffff" fill-opacity="0.07" style="animation-delay:0.42s"/>
  <rect class="cell" x="180.0" y="125.2" width="11" height="11" rx="2.5" fill="#ffffff" fill-opacity="0.07" style="animation-delay:0.42s"/>
  <rect class="cell" x="180.0" y="138.8" width="11" height="11" rx="2.5" fill="#ffffff" fill-opacity="0.07" style="animation-delay:0.42s"/>
  <rect class="cell" x="180.0" y="152.4" width="11" height="11" rx="2.5" fill="#ffffff" fill-opacity="0.07" style="animation-delay:0.42s"/>
  <rect class="cell" x="180.0" y="166.0" width="11" height="11" rx="2.5" fill="#ffffff" fill-opacity="0.07" style="animation-delay:0.42s"/>
  <rect class="cell" x="180.0" y="179.6" width="11" height="11" rx="2.5" fill="#ffffff" fill-opacity="0.07" style="animation-delay:0.42s"/>
  <rect class="cell" x="193.6" y="98.0" width="11" height="11" rx="2.5" fill="#ffffff" fill-opacity="0.07" style="animation-delay:0.43s"/>
  <rect class="cell" x="193.6" y="111.6" width="11" height="11" rx="2.5" fill="#ffffff" fill-opacity="0.07" style="animation-delay:0.43s"/>
  <rect class="cell" x="193.6" y="125.2" width="11" height="11" rx="2.5" fill="#ffffff" fill-opacity="0.07" style="animation-delay:0.43s"/>
  <rect class="cell" x="193.6" y="138.8" width="11" height="11" rx="2.5" fill="#ffffff" fill-opacity="0.07" style="animation-delay:0.43s"/>
  <rect class="cell" x="193.6" y="152.4" width="11" height="11" rx="2.5" fill="#ffffff" fill-opacity="0.07" style="animation-delay:0.43s"/>
  <rect class="cell" x="193.6" y="166.0" width="11" height="11" rx="2.5" fill="#ffffff" fill-opacity="0.07" style="animation-delay:0.43s"/>
  <rect class="cell" x="193.6" y="179.6" width="11" height="11" rx="2.5" fill="#ffffff" fill-opacity="0.07" style="animation-delay:0.43s"/>
  <rect class="cell" x="207.2" y="98.0" width="11" height="11" rx="2.5" fill="#ffffff" fill-opacity="0.07" style="animation-delay:0.43s"/>
  <rect class="cell" x="207.2" y="111.6" width="11" height="11" rx="2.5" fill="#ffffff" fill-opacity="0.07" style="animation-delay:0.43s"/>
  <rect class="cell" x="207.2" y="125.2" width="11" height="11" rx="2.5" fill="#ffffff" fill-opacity="0.07" style="animation-delay:0.43s"/>
  <rect class="cell" x="207.2" y="138.8" width="11" height="11" rx="2.5" fill="#ffffff" fill-opacity="0.07" style="animation-delay:0.43s"/>
  <rect class="cell" x="207.2" y="152.4" width="11" height="11" rx="2.5" fill="#ffffff" fill-opacity="0.07" style="animation-delay:0.43s"/>
  <rect class="cell" x="207.2" y="166.0" width="11" height="11" rx="2.5" fill="#ffffff" fill-opacity="0.07" style="animation-delay:0.43s"/>
  <rect class="cell" x="207.2" y="179.6" width="11" height="11" rx="2.5" fill="#ffffff" fill-opacity="0.07" style="animation-delay:0.43s"/>
  <rect class="cell" x="220.8" y="98.0" width="11" height="11" rx="2.5" fill="#ffffff" fill-opacity="0.07" style="animation-delay:0.44s"/>
  <rect class="cell" x="220.8" y="111.6" width="11" height="11" rx="2.5" fill="#ffffff" fill-opacity="0.07" style="animation-delay:0.44s"/>
  <rect class="cell" x="220.8" y="125.2" width="11" height="11" rx="2.5" fill="#ffffff" fill-opacity="0.07" style="animation-delay:0.44s"/>
  <rect class="cell" x="220.8" y="138.8" width="11" height="11" rx="2.5" fill="#ffffff" fill-opacity="0.07" style="animation-delay:0.44s"/>
  <rect class="cell" x="220.8" y="152.4" width="11" height="11" rx="2.5" fill="#ffffff" fill-opacity="0.07" style="animation-delay:0.44s"/>
  <rect class="cell" x="220.8" y="166.0" width="11" height="11" rx="2.5" fill="#ffffff" fill-opacity="0.07" style="animation-delay:0.44s"/>
  <rect class="cell" x="220.8" y="179.6" width="11" height="11" rx="2.5" fill="#ffffff" fill-opacity="0.07" style="animation-delay:0.44s"/>
  <rect class="cell" x="234.4" y="98.0" width="11" height="11" rx="2.5" fill="#ffffff" fill-opacity="0.07" style="animation-delay:0.45s"/>
  <rect class="cell" x="234.4" y="111.6" width="11" height="11" rx="2.5" fill="#ffffff" fill-opacity="0.07" style="animation-delay:0.45s"/>
  <rect class="cell" x="234.4" y="125.2" width="11" height="11" rx="2.5" fill="#ffffff" fill-opacity="0.07" style="animation-delay:0.45s"/>
  <rect class="cell" x="234.4" y="138.8" width="11" height="11" rx="2.5" fill="#ffffff" fill-opacity="0.07" style="animation-delay:0.45s"/>
  <rect class="cell" x="234.4" y="152.4" width="11" height="11" rx="2.5" fill="#ffffff" fill-opacity="0.07" style="animation-delay:0.45s"/>
  <rect class="cell" x="234.4" y="166.0" width="11" height="11" rx="2.5" fill="#ffffff" fill-opacity="0.07" style="animation-delay:0.45s"/>
  <rect class="cell" x="234.4" y="179.6" width="11" height="11" rx="2.5" fill="#ffffff" fill-opacity="0.07" style="animation-delay:0.45s"/>
  <rect class="cell" x="248.0" y="98.0" width="11" height="11" rx="2.5" fill="#ffffff" fill-opacity="0.07" style="animation-delay:0.45s"/>
  <rect class="cell" x="248.0" y="111.6" width="11" height="11" rx="2.5" fill="#ffffff" fill-opacity="0.07" style="animation-delay:0.45s"/>
  <rect class="cell" x="248.0" y="125.2" width="11" height="11" rx="2.5" fill="#ffffff" fill-opacity="0.07" style="animation-delay:0.45s"/>
  <rect class="cell" x="248.0" y="138.8" width="11" height="11" rx="2.5" fill="#ffffff" fill-opacity="0.07" style="animation-delay:0.45s"/>
  <rect class="cell" x="248.0" y="152.4" width="11" height="11" rx="2.5" fill="#ffffff" fill-opacity="0.07" style="animation-delay:0.45s"/>
  <rect class="cell" x="248.0" y="166.0" width="11" height="11" rx="2.5" fill="#ffffff" fill-opacity="0.07" style="animation-delay:0.45s"/>
  <rect class="cell" x="248.0" y="179.6" width="11" height="11" rx="2.5" fill="#ffffff" fill-opacity="0.07" style="animation-delay:0.45s"/>
  <rect class="cell" x="261.6" y="98.0" width="11" height="11" rx="2.5" fill="#ffffff" fill-opacity="0.07" style="animation-delay:0.46s"/>
  <rect class="cell" x="261.6" y="111.6" width="11" height="11" rx="2.5" fill="#ffffff" fill-opacity="0.07" style="animation-delay:0.46s"/>
  <rect class="cell" x="261.6" y="125.2" width="11" height="11" rx="2.5" fill="#ffffff" fill-opacity="0.07" style="animation-delay:0.46s"/>
  <rect class="cell" x="261.6" y="138.8" width="11" height="11" rx="2.5" fill="#ffffff" fill-opacity="0.5" style="animation-delay:0.46s"/>
  <rect class="cell" x="261.6" y="152.4" width="11" height="11" rx="2.5" fill="#ffffff" fill-opacity="0.07" style="animation-delay:0.46s"/>
  <rect class="cell" x="261.6" y="166.0" width="11" height="11" rx="2.5" fill="#ffffff" fill-opacity="0.07" style="animation-delay:0.46s"/>
  <rect class="cell" x="261.6" y="179.6" width="11" height="11" rx="2.5" fill="#ffffff" fill-opacity="0.07" style="animation-delay:0.46s"/>
  <rect class="cell" x="275.2" y="98.0" width="11" height="11" rx="2.5" fill="#ffffff" fill-opacity="0.07" style="animation-delay:0.47s"/>
  <rect class="cell" x="275.2" y="111.6" width="11" height="11" rx="2.5" fill="#ffffff" fill-opacity="0.07" style="animation-delay:0.47s"/>
  <rect class="cell" x="275.2" y="125.2" width="11" height="11" rx="2.5" fill="#ffffff" fill-opacity="0.07" style="animation-delay:0.47s"/>
  <rect class="cell" x="275.2" y="138.8" width="11" height="11" rx="2.5" fill="#ffffff" fill-opacity="0.07" style="animation-delay:0.47s"/>
  <rect class="cell" x="275.2" y="152.4" width="11" height="11" rx="2.5" fill="#ffffff" fill-opacity="0.07" style="animation-delay:0.47s"/>
  <rect class="cell" x="275.2" y="166.0" width="11" height="11" rx="2.5" fill="#ffffff" fill-opacity="0.07" style="animation-delay:0.47s"/>
  <rect class="cell" x="275.2" y="179.6" width="11" height="11" rx="2.5" fill="#ffffff" fill-opacity="0.07" style="animation-delay:0.47s"/>
  <rect class="cell" x="288.8" y="98.0" width="11" height="11" rx="2.5" fill="#ffffff" fill-opacity="0.07" style="animation-delay:0.48s"/>
  <rect class="cell" x="288.8" y="111.6" width="11" height="11" rx="2.5" fill="#ffffff" fill-opacity="0.07" style="animation-delay:0.48s"/>
  <rect class="cell" x="288.8" y="125.2" width="11" height="11" rx="2.5" fill="#ffffff" fill-opacity="0.07" style="animation-delay:0.48s"/>
  <rect class="cell" x="288.8" y="138.8" width="11" height="11" rx="2.5" fill="#ffffff" fill-opacity="0.07" style="animation-delay:0.48s"/>
  <rect class="cell" x="288.8" y="152.4" width="11" height="11" rx="2.5" fill="#ffffff" fill-opacity="0.07" style="animation-delay:0.48s"/>
  <rect class="cell" x="288.8" y="166.0" width="11" height="11" rx="2.5" fill="#ffffff" fill-opacity="0.07" style="animation-delay:0.48s"/>
  <rect class="cell" x="288.8" y="179.6" width="11" height="11" rx="2.5" fill="#ffffff" fill-opacity="0.07" style="animation-delay:0.48s"/>
  <rect class="cell" x="302.4" y="98.0" width="11" height="11" rx="2.5" fill="#ffffff" fill-opacity="0.07" style="animation-delay:0.48s"/>
  <rect class="cell" x="302.4" y="111.6" width="11" height="11" rx="2.5" fill="#ffffff" fill-opacity="0.07" style="animation-delay:0.48s"/>
  <rect class="cell" x="302.4" y="125.2" width="11" height="11" rx="2.5" fill="#ffffff" fill-opacity="0.07" style="animation-delay:0.48s"/>
  <rect class="cell" x="302.4" y="138.8" width="11" height="11" rx="2.5" fill="#ffffff" fill-opacity="0.07" style="animation-delay:0.48s"/>
  <rect class="cell" x="302.4" y="152.4" width="11" height="11" rx="2.5" fill="#ffffff" fill-opacity="0.07" style="animation-delay:0.48s"/>
  <rect class="cell" x="302.4" y="166.0" width="11" height="11" rx="2.5" fill="#ffffff" fill-opacity="0.07" style="animation-delay:0.48s"/>
  <rect class="cell" x="302.4" y="179.6" width="11" height="11" rx="2.5" fill="#ffffff" fill-opacity="0.07" style="animation-delay:0.48s"/>
  <rect class="cell" x="316.0" y="98.0" width="11" height="11" rx="2.5" fill="#ffffff" fill-opacity="0.07" style="animation-delay:0.49s"/>
  <rect class="cell" x="316.0" y="111.6" width="11" height="11" rx="2.5" fill="#ffffff" fill-opacity="0.28" style="animation-delay:0.49s"/>
  <rect class="cell" x="316.0" y="125.2" width="11" height="11" rx="2.5" fill="#ffffff" fill-opacity="0.07" style="animation-delay:0.49s"/>
  <rect class="cell" x="316.0" y="138.8" width="11" height="11" rx="2.5" fill="#ffffff" fill-opacity="0.07" style="animation-delay:0.49s"/>
  <rect class="cell" x="316.0" y="152.4" width="11" height="11" rx="2.5" fill="#ffffff" fill-opacity="0.07" style="animation-delay:0.49s"/>
  <rect class="cell" x="316.0" y="166.0" width="11" height="11" rx="2.5" fill="#ffffff" fill-opacity="0.28" style="animation-delay:0.49s"/>
  <rect class="cell" x="316.0" y="179.6" width="11" height="11" rx="2.5" fill="#ffffff" fill-opacity="0.07" style="animation-delay:0.49s"/>
  <rect class="cell" x="329.6" y="98.0" width="11" height="11" rx="2.5" fill="#ffffff" fill-opacity="0.07" style="animation-delay:0.50s"/>
  <rect class="cell" x="329.6" y="111.6" width="11" height="11" rx="2.5" fill="#ffffff" fill-opacity="0.07" style="animation-delay:0.50s"/>
  <rect class="cell" x="329.6" y="125.2" width="11" height="11" rx="2.5" fill="#ffffff" fill-opacity="0.07" style="animation-delay:0.50s"/>
  <rect class="cell" x="329.6" y="138.8" width="11" height="11" rx="2.5" fill="#ffffff" fill-opacity="0.07" style="animation-delay:0.50s"/>
  <rect class="cell" x="329.6" y="152.4" width="11" height="11" rx="2.5" fill="#ffffff" fill-opacity="0.07" style="animation-delay:0.50s"/>
  <rect class="cell" x="329.6" y="166.0" width="11" height="11" rx="2.5" fill="#ffffff" fill-opacity="0.07" style="animation-delay:0.50s"/>
  <rect class="cell" x="329.6" y="179.6" width="11" height="11" rx="2.5" fill="#ffffff" fill-opacity="0.07" style="animation-delay:0.50s"/>
  <rect class="cell" x="343.2" y="98.0" width="11" height="11" rx="2.5" fill="#ffffff" fill-opacity="0.07" style="animation-delay:0.50s"/>
  <rect class="cell" x="343.2" y="111.6" width="11" height="11" rx="2.5" fill="#ffffff" fill-opacity="0.07" style="animation-delay:0.50s"/>
  <rect class="cell" x="343.2" y="125.2" width="11" height="11" rx="2.5" fill="#ffffff" fill-opacity="0.28" style="animation-delay:0.50s"/>
  <rect class="cell" x="343.2" y="138.8" width="11" height="11" rx="2.5" fill="#ffffff" fill-opacity="0.07" style="animation-delay:0.50s"/>
  <rect class="cell" x="343.2" y="152.4" width="11" height="11" rx="2.5" fill="#ffffff" fill-opacity="0.07" style="animation-delay:0.50s"/>
  <rect class="cell" x="343.2" y="166.0" width="11" height="11" rx="2.5" fill="#ffffff" fill-opacity="0.07" style="animation-delay:0.50s"/>
  <rect class="cell" x="343.2" y="179.6" width="11" height="11" rx="2.5" fill="#ffffff" fill-opacity="0.07" style="animation-delay:0.50s"/>
  <rect class="cell" x="356.8" y="98.0" width="11" height="11" rx="2.5" fill="#ffffff" fill-opacity="0.07" style="animation-delay:0.51s"/>
  <rect class="cell" x="356.8" y="111.6" width="11" height="11" rx="2.5" fill="#ffffff" fill-opacity="0.28" style="animation-delay:0.51s"/>
  <rect class="cell" x="356.8" y="125.2" width="11" height="11" rx="2.5" fill="#ffffff" fill-opacity="0.07" style="animation-delay:0.51s"/>
  <rect class="cell" x="356.8" y="138.8" width="11" height="11" rx="2.5" fill="#ffffff" fill-opacity="0.07" style="animation-delay:0.51s"/>
  <rect class="cell" x="356.8" y="152.4" width="11" height="11" rx="2.5" fill="#ffffff" fill-opacity="0.28" style="animation-delay:0.51s"/>
  <rect class="cell" x="356.8" y="166.0" width="11" height="11" rx="2.5" fill="#ffffff" fill-opacity="0.28" style="animation-delay:0.51s"/>
  <rect class="cell" x="356.8" y="179.6" width="11" height="11" rx="2.5" fill="#ffffff" fill-opacity="0.07" style="animation-delay:0.51s"/>
  <rect class="cell" x="370.4" y="98.0" width="11" height="11" rx="2.5" fill="#ffffff" fill-opacity="0.07" style="animation-delay:0.52s"/>
  <rect class="cell" x="370.4" y="111.6" width="11" height="11" rx="2.5" fill="#ffffff" fill-opacity="0.07" style="animation-delay:0.52s"/>
  <rect class="cell" x="370.4" y="125.2" width="11" height="11" rx="2.5" fill="#ffffff" fill-opacity="0.07" style="animation-delay:0.52s"/>
  <rect class="cell" x="370.4" y="138.8" width="11" height="11" rx="2.5" fill="#ffffff" fill-opacity="0.07" style="animation-delay:0.52s"/>
  <rect class="cell" x="370.4" y="152.4" width="11" height="11" rx="2.5" fill="#ffffff" fill-opacity="0.07" style="animation-delay:0.52s"/>
  <rect class="cell" x="370.4" y="166.0" width="11" height="11" rx="2.5" fill="#ffffff" fill-opacity="0.07" style="animation-delay:0.52s"/>
  <rect class="cell" x="370.4" y="179.6" width="11" height="11" rx="2.5" fill="#ffffff" fill-opacity="0.07" style="animation-delay:0.52s"/>
  <rect class="cell" x="384.0" y="98.0" width="11" height="11" rx="2.5" fill="#ffffff" fill-opacity="0.07" style="animation-delay:0.53s"/>
  <rect class="cell" x="384.0" y="111.6" width="11" height="11" rx="2.5" fill="#ffffff" fill-opacity="0.07" style="animation-delay:0.53s"/>
  <rect class="cell" x="384.0" y="125.2" width="11" height="11" rx="2.5" fill="#ffffff" fill-opacity="0.07" style="animation-delay:0.53s"/>
  <rect class="cell" x="384.0" y="138.8" width="11" height="11" rx="2.5" fill="#ffffff" fill-opacity="0.07" style="animation-delay:0.53s"/>
  <rect class="cell" x="384.0" y="152.4" width="11" height="11" rx="2.5" fill="#ffffff" fill-opacity="0.07" style="animation-delay:0.53s"/>
  <rect class="cell" x="384.0" y="166.0" width="11" height="11" rx="2.5" fill="#ffffff" fill-opacity="0.07" style="animation-delay:0.53s"/>
  <rect class="cell" x="384.0" y="179.6" width="11" height="11" rx="2.5" fill="#ffffff" fill-opacity="0.07" style="animation-delay:0.53s"/>
  <rect class="cell" x="397.6" y="98.0" width="11" height="11" rx="2.5" fill="#ffffff" fill-opacity="0.07" style="animation-delay:0.53s"/>
  <rect class="cell" x="397.6" y="111.6" width="11" height="11" rx="2.5" fill="#ffffff" fill-opacity="0.07" style="animation-delay:0.53s"/>
  <rect class="cell" x="397.6" y="125.2" width="11" height="11" rx="2.5" fill="#ffffff" fill-opacity="0.07" style="animation-delay:0.53s"/>
  <rect class="cell" x="397.6" y="138.8" width="11" height="11" rx="2.5" fill="#ffffff" fill-opacity="0.07" style="animation-delay:0.53s"/>
  <rect class="cell" x="397.6" y="152.4" width="11" height="11" rx="2.5" fill="#ffffff" fill-opacity="0.07" style="animation-delay:0.53s"/>
  <rect class="cell" x="397.6" y="166.0" width="11" height="11" rx="2.5" fill="#ffffff" fill-opacity="0.07" style="animation-delay:0.53s"/>
  <rect class="cell" x="397.6" y="179.6" width="11" height="11" rx="2.5" fill="#ffffff" fill-opacity="0.07" style="animation-delay:0.53s"/>
  <rect class="cell" x="411.2" y="98.0" width="11" height="11" rx="2.5" fill="#ffffff" fill-opacity="0.07" style="animation-delay:0.54s"/>
  <rect class="cell" x="411.2" y="111.6" width="11" height="11" rx="2.5" fill="#ffffff" fill-opacity="0.07" style="animation-delay:0.54s"/>
  <rect class="cell" x="411.2" y="125.2" width="11" height="11" rx="2.5" fill="#ffffff" fill-opacity="0.07" style="animation-delay:0.54s"/>
  <rect class="cell" x="411.2" y="138.8" width="11" height="11" rx="2.5" fill="#ffffff" fill-opacity="0.07" style="animation-delay:0.54s"/>
  <rect class="cell" x="411.2" y="152.4" width="11" height="11" rx="2.5" fill="#ffffff" fill-opacity="0.07" style="animation-delay:0.54s"/>
  <rect class="cell" x="411.2" y="166.0" width="11" height="11" rx="2.5" fill="#ffffff" fill-opacity="0.07" style="animation-delay:0.54s"/>
  <rect class="cell" x="411.2" y="179.6" width="11" height="11" rx="2.5" fill="#ffffff" fill-opacity="0.07" style="animation-delay:0.54s"/>
  <rect class="cell" x="424.8" y="98.0" width="11" height="11" rx="2.5" fill="#ffffff" fill-opacity="0.07" style="animation-delay:0.55s"/>
  <rect class="cell" x="424.8" y="111.6" width="11" height="11" rx="2.5" fill="#ffffff" fill-opacity="0.07" style="animation-delay:0.55s"/>
  <rect class="cell" x="424.8" y="125.2" width="11" height="11" rx="2.5" fill="#ffffff" fill-opacity="0.5" style="animation-delay:0.55s"/>
  <rect class="cell" x="424.8" y="138.8" width="11" height="11" rx="2.5" fill="#ffffff" fill-opacity="0.28" style="animation-delay:0.55s"/>
  <rect class="cell" x="424.8" y="152.4" width="11" height="11" rx="2.5" fill="#ffffff" fill-opacity="0.07" style="animation-delay:0.55s"/>
  <rect class="cell" x="424.8" y="166.0" width="11" height="11" rx="2.5" fill="#ffffff" fill-opacity="0.28" style="animation-delay:0.55s"/>
  <rect class="cell" x="424.8" y="179.6" width="11" height="11" rx="2.5" fill="#ffffff" fill-opacity="0.07" style="animation-delay:0.55s"/>
  <rect class="cell" x="438.4" y="98.0" width="11" height="11" rx="2.5" fill="#ffffff" fill-opacity="0.07" style="animation-delay:0.55s"/>
  <rect class="cell" x="438.4" y="111.6" width="11" height="11" rx="2.5" fill="#ffffff" fill-opacity="0.07" style="animation-delay:0.55s"/>
  <rect class="cell" x="438.4" y="125.2" width="11" height="11" rx="2.5" fill="#ffffff" fill-opacity="0.28" style="animation-delay:0.55s"/>
  <rect class="cell" x="438.4" y="138.8" width="11" height="11" rx="2.5" fill="#ffffff" fill-opacity="0.07" style="animation-delay:0.55s"/>
  <rect class="cell" x="438.4" y="152.4" width="11" height="11" rx="2.5" fill="#ffffff" fill-opacity="0.07" style="animation-delay:0.55s"/>
  <rect class="cell" x="438.4" y="166.0" width="11" height="11" rx="2.5" fill="#ffffff" fill-opacity="0.07" style="animation-delay:0.55s"/>
  <rect class="cell" x="438.4" y="179.6" width="11" height="11" rx="2.5" fill="#ffffff" fill-opacity="0.07" style="animation-delay:0.55s"/>
  <rect class="cell" x="452.0" y="98.0" width="11" height="11" rx="2.5" fill="#ffffff" fill-opacity="0.07" style="animation-delay:0.56s"/>
  <rect class="cell" x="452.0" y="111.6" width="11" height="11" rx="2.5" fill="#ffffff" fill-opacity="0.07" style="animation-delay:0.56s"/>
  <rect class="cell" x="452.0" y="125.2" width="11" height="11" rx="2.5" fill="#ffffff" fill-opacity="0.07" style="animation-delay:0.56s"/>
  <rect class="cell" x="452.0" y="138.8" width="11" height="11" rx="2.5" fill="#ffffff" fill-opacity="0.07" style="animation-delay:0.56s"/>
  <rect class="cell" x="452.0" y="152.4" width="11" height="11" rx="2.5" fill="#ffffff" fill-opacity="0.28" style="animation-delay:0.56s"/>
  <rect class="cell" x="452.0" y="166.0" width="11" height="11" rx="2.5" fill="#ffffff" fill-opacity="0.28" style="animation-delay:0.56s"/>
  <rect class="cell" x="452.0" y="179.6" width="11" height="11" rx="2.5" fill="#ffffff" fill-opacity="0.28" style="animation-delay:0.56s"/>
  <rect class="cell" x="465.6" y="98.0" width="11" height="11" rx="2.5" fill="#ffffff" fill-opacity="0.07" style="animation-delay:0.57s"/>
  <rect class="cell" x="465.6" y="111.6" width="11" height="11" rx="2.5" fill="#ffffff" fill-opacity="0.07" style="animation-delay:0.57s"/>
  <rect class="cell" x="465.6" y="125.2" width="11" height="11" rx="2.5" fill="#ffffff" fill-opacity="0.07" style="animation-delay:0.57s"/>
  <rect class="cell" x="465.6" y="138.8" width="11" height="11" rx="2.5" fill="#ffffff" fill-opacity="0.07" style="animation-delay:0.57s"/>
  <rect class="cell" x="465.6" y="152.4" width="11" height="11" rx="2.5" fill="#ffffff" fill-opacity="0.07" style="animation-delay:0.57s"/>
  <rect class="cell" x="465.6" y="166.0" width="11" height="11" rx="2.5" fill="#ffffff" fill-opacity="0.07" style="animation-delay:0.57s"/>
  <rect class="cell" x="465.6" y="179.6" width="11" height="11" rx="2.5" fill="#ffffff" fill-opacity="0.07" style="animation-delay:0.57s"/>
  <rect class="cell" x="479.2" y="98.0" width="11" height="11" rx="2.5" fill="#ffffff" fill-opacity="0.07" style="animation-delay:0.57s"/>
  <rect class="cell" x="479.2" y="111.6" width="11" height="11" rx="2.5" fill="#ffffff" fill-opacity="0.07" style="animation-delay:0.57s"/>
  <rect class="cell" x="479.2" y="125.2" width="11" height="11" rx="2.5" fill="#ffffff" fill-opacity="0.07" style="animation-delay:0.57s"/>
  <rect class="cell" x="479.2" y="138.8" width="11" height="11" rx="2.5" fill="#ffffff" fill-opacity="0.07" style="animation-delay:0.57s"/>
  <rect class="cell" x="479.2" y="152.4" width="11" height="11" rx="2.5" fill="#ffffff" fill-opacity="0.07" style="animation-delay:0.57s"/>
  <rect class="cell" x="479.2" y="166.0" width="11" height="11" rx="2.5" fill="#ffffff" fill-opacity="0.07" style="animation-delay:0.57s"/>
  <rect class="cell" x="479.2" y="179.6" width="11" height="11" rx="2.5" fill="#ffffff" fill-opacity="0.07" style="animation-delay:0.57s"/>
  <rect class="cell" x="492.8" y="98.0" width="11" height="11" rx="2.5" fill="#ffffff" fill-opacity="0.07" style="animation-delay:0.58s"/>
  <rect class="cell" x="492.8" y="111.6" width="11" height="11" rx="2.5" fill="#ffffff" fill-opacity="0.07" style="animation-delay:0.58s"/>
  <rect class="cell" x="492.8" y="125.2" width="11" height="11" rx="2.5" fill="#ffffff" fill-opacity="0.07" style="animation-delay:0.58s"/>
  <rect class="cell" x="492.8" y="138.8" width="11" height="11" rx="2.5" fill="#ffffff" fill-opacity="0.07" style="animation-delay:0.58s"/>
  <rect class="cell" x="492.8" y="152.4" width="11" height="11" rx="2.5" fill="#ffffff" fill-opacity="0.07" style="animation-delay:0.58s"/>
  <rect class="cell" x="492.8" y="166.0" width="11" height="11" rx="2.5" fill="#ffffff" fill-opacity="0.07" style="animation-delay:0.58s"/>
  <rect class="cell" x="492.8" y="179.6" width="11" height="11" rx="2.5" fill="#ffffff" fill-opacity="0.07" style="animation-delay:0.58s"/>
  <rect class="cell" x="506.4" y="98.0" width="11" height="11" rx="2.5" fill="#ffffff" fill-opacity="0.07" style="animation-delay:0.59s"/>
  <rect class="cell" x="506.4" y="111.6" width="11" height="11" rx="2.5" fill="#ffffff" fill-opacity="0.07" style="animation-delay:0.59s"/>
  <rect class="cell" x="506.4" y="125.2" width="11" height="11" rx="2.5" fill="#ffffff" fill-opacity="0.07" style="animation-delay:0.59s"/>
  <rect class="cell" x="506.4" y="138.8" width="11" height="11" rx="2.5" fill="#ffffff" fill-opacity="0.07" style="animation-delay:0.59s"/>
  <rect class="cell" x="506.4" y="152.4" width="11" height="11" rx="2.5" fill="#ffffff" fill-opacity="0.07" style="animation-delay:0.59s"/>
  <rect class="cell" x="506.4" y="166.0" width="11" height="11" rx="2.5" fill="#ffffff" fill-opacity="0.07" style="animation-delay:0.59s"/>
  <rect class="cell" x="506.4" y="179.6" width="11" height="11" rx="2.5" fill="#ffffff" fill-opacity="0.07" style="animation-delay:0.59s"/>
  <rect class="cell" x="520.0" y="98.0" width="11" height="11" rx="2.5" fill="#ffffff" fill-opacity="0.28" style="animation-delay:0.59s"/>
  <rect class="cell" x="520.0" y="111.6" width="11" height="11" rx="2.5" fill="#ffffff" fill-opacity="0.07" style="animation-delay:0.59s"/>
  <rect class="cell" x="520.0" y="125.2" width="11" height="11" rx="2.5" fill="#ffffff" fill-opacity="0.07" style="animation-delay:0.59s"/>
  <rect class="cell" x="520.0" y="138.8" width="11" height="11" rx="2.5" fill="#ffffff" fill-opacity="0.28" style="animation-delay:0.59s"/>
  <rect class="cell" x="520.0" y="152.4" width="11" height="11" rx="2.5" fill="#ffffff" fill-opacity="0.28" style="animation-delay:0.59s"/>
  <rect class="cell" x="520.0" y="166.0" width="11" height="11" rx="2.5" fill="#ffffff" fill-opacity="0.07" style="animation-delay:0.59s"/>
  <rect class="cell" x="520.0" y="179.6" width="11" height="11" rx="2.5" fill="#ffffff" fill-opacity="0.07" style="animation-delay:0.59s"/>
  <rect class="cell" x="533.6" y="98.0" width="11" height="11" rx="2.5" fill="#ffffff" fill-opacity="0.07" style="animation-delay:0.60s"/>
  <rect class="cell" x="533.6" y="111.6" width="11" height="11" rx="2.5" fill="#ffffff" fill-opacity="0.07" style="animation-delay:0.60s"/>
  <rect class="cell" x="533.6" y="125.2" width="11" height="11" rx="2.5" fill="#ffffff" fill-opacity="0.07" style="animation-delay:0.60s"/>
  <rect class="cell" x="533.6" y="138.8" width="11" height="11" rx="2.5" fill="#ffffff" fill-opacity="0.07" style="animation-delay:0.60s"/>
  <rect class="cell" x="533.6" y="152.4" width="11" height="11" rx="2.5" fill="#ffffff" fill-opacity="0.07" style="animation-delay:0.60s"/>
  <rect class="cell" x="533.6" y="166.0" width="11" height="11" rx="2.5" fill="#ffffff" fill-opacity="0.07" style="animation-delay:0.60s"/>
  <rect class="cell" x="533.6" y="179.6" width="11" height="11" rx="2.5" fill="#ffffff" fill-opacity="0.07" style="animation-delay:0.60s"/>
  <rect class="cell" x="547.2" y="98.0" width="11" height="11" rx="2.5" fill="#ffffff" fill-opacity="0.07" style="animation-delay:0.61s"/>
  <rect class="cell" x="547.2" y="111.6" width="11" height="11" rx="2.5" fill="#ffffff" fill-opacity="0.07" style="animation-delay:0.61s"/>
  <rect class="cell" x="547.2" y="125.2" width="11" height="11" rx="2.5" fill="#ffffff" fill-opacity="0.07" style="animation-delay:0.61s"/>
  <rect class="cell" x="547.2" y="138.8" width="11" height="11" rx="2.5" fill="#ffffff" fill-opacity="0.07" style="animation-delay:0.61s"/>
  <rect class="cell" x="547.2" y="152.4" width="11" height="11" rx="2.5" fill="#ffffff" fill-opacity="0.07" style="animation-delay:0.61s"/>
  <rect class="cell" x="547.2" y="166.0" width="11" height="11" rx="2.5" fill="#ffffff" fill-opacity="0.07" style="animation-delay:0.61s"/>
  <rect class="cell" x="547.2" y="179.6" width="11" height="11" rx="2.5" fill="#ffffff" fill-opacity="0.07" style="animation-delay:0.61s"/>
  <rect class="cell" x="560.8" y="98.0" width="11" height="11" rx="2.5" fill="#ffffff" fill-opacity="0.07" style="animation-delay:0.62s"/>
  <rect class="cell" x="560.8" y="111.6" width="11" height="11" rx="2.5" fill="#ffffff" fill-opacity="0.07" style="animation-delay:0.62s"/>
  <rect class="cell" x="560.8" y="125.2" width="11" height="11" rx="2.5" fill="#ffffff" fill-opacity="0.07" style="animation-delay:0.62s"/>
  <rect class="cell" x="560.8" y="138.8" width="11" height="11" rx="2.5" fill="#ffffff" fill-opacity="0.07" style="animation-delay:0.62s"/>
  <rect class="cell" x="560.8" y="152.4" width="11" height="11" rx="2.5" fill="#ffffff" fill-opacity="0.07" style="animation-delay:0.62s"/>
  <rect class="cell" x="560.8" y="166.0" width="11" height="11" rx="2.5" fill="#ffffff" fill-opacity="0.07" style="animation-delay:0.62s"/>
  <rect class="cell" x="560.8" y="179.6" width="11" height="11" rx="2.5" fill="#ffffff" fill-opacity="0.07" style="animation-delay:0.62s"/>
  <rect class="cell" x="574.4" y="98.0" width="11" height="11" rx="2.5" fill="#ffffff" fill-opacity="0.07" style="animation-delay:0.62s"/>
  <rect class="cell" x="574.4" y="111.6" width="11" height="11" rx="2.5" fill="#ffffff" fill-opacity="0.07" style="animation-delay:0.62s"/>
  <rect class="cell" x="574.4" y="125.2" width="11" height="11" rx="2.5" fill="#ffffff" fill-opacity="0.07" style="animation-delay:0.62s"/>
  <rect class="cell" x="574.4" y="138.8" width="11" height="11" rx="2.5" fill="#ffffff" fill-opacity="0.28" style="animation-delay:0.62s"/>
  <rect class="cell" x="574.4" y="152.4" width="11" height="11" rx="2.5" fill="#ffffff" fill-opacity="0.07" style="animation-delay:0.62s"/>
  <rect class="cell" x="574.4" y="166.0" width="11" height="11" rx="2.5" fill="#ffffff" fill-opacity="0.07" style="animation-delay:0.62s"/>
  <rect class="cell" x="574.4" y="179.6" width="11" height="11" rx="2.5" fill="#ffffff" fill-opacity="0.07" style="animation-delay:0.62s"/>
  <rect class="cell" x="588.0" y="98.0" width="11" height="11" rx="2.5" fill="#ffffff" fill-opacity="0.07" style="animation-delay:0.63s"/>
  <rect class="cell" x="588.0" y="111.6" width="11" height="11" rx="2.5" fill="#ffffff" fill-opacity="0.28" style="animation-delay:0.63s"/>
  <rect class="cell" x="588.0" y="125.2" width="11" height="11" rx="2.5" fill="#ffffff" fill-opacity="0.07" style="animation-delay:0.63s"/>
  <rect class="cell" x="588.0" y="138.8" width="11" height="11" rx="2.5" fill="#ffffff" fill-opacity="0.07" style="animation-delay:0.63s"/>
  <rect class="cell" x="588.0" y="152.4" width="11" height="11" rx="2.5" fill="#ffffff" fill-opacity="0.28" style="animation-delay:0.63s"/>
  <rect class="cell" x="588.0" y="166.0" width="11" height="11" rx="2.5" fill="#ffffff" fill-opacity="0.28" style="animation-delay:0.63s"/>
  <rect class="cell" x="588.0" y="179.6" width="11" height="11" rx="2.5" fill="#ffffff" fill-opacity="0.28" style="animation-delay:0.63s"/>
  <rect class="cell" x="601.6" y="98.0" width="11" height="11" rx="2.5" fill="#ffffff" fill-opacity="0.28" style="animation-delay:0.64s"/>
  <rect class="cell" x="601.6" y="111.6" width="11" height="11" rx="2.5" fill="#ffffff" fill-opacity="0.07" style="animation-delay:0.64s"/>
  <rect class="cell" x="601.6" y="125.2" width="11" height="11" rx="2.5" fill="#ffffff" fill-opacity="0.07" style="animation-delay:0.64s"/>
  <rect class="cell" x="601.6" y="138.8" width="11" height="11" rx="2.5" fill="#ffffff" fill-opacity="0.07" style="animation-delay:0.64s"/>
  <rect class="cell" x="601.6" y="152.4" width="11" height="11" rx="2.5" fill="#ffffff" fill-opacity="0.07" style="animation-delay:0.64s"/>
  <rect class="cell" x="601.6" y="166.0" width="11" height="11" rx="2.5" fill="#ffffff" fill-opacity="0.5" style="animation-delay:0.64s"/>
  <rect class="cell" x="601.6" y="179.6" width="11" height="11" rx="2.5" fill="#ffffff" fill-opacity="0.28" style="animation-delay:0.64s"/>
  <rect class="cell" x="615.2" y="98.0" width="11" height="11" rx="2.5" fill="#ffffff" fill-opacity="0.28" style="animation-delay:0.64s"/>
  <rect class="cell" x="615.2" y="111.6" width="11" height="11" rx="2.5" fill="#ffffff" fill-opacity="0.28" style="animation-delay:0.64s"/>
  <rect class="cell" x="615.2" y="125.2" width="11" height="11" rx="2.5" fill="#ffffff" fill-opacity="0.5" style="animation-delay:0.64s"/>
  <rect class="cell" x="615.2" y="138.8" width="11" height="11" rx="2.5" fill="#ffffff" fill-opacity="0.28" style="animation-delay:0.64s"/>
  <rect class="cell" x="615.2" y="152.4" width="11" height="11" rx="2.5" fill="#ffffff" fill-opacity="0.28" style="animation-delay:0.64s"/>
  <rect class="cell" x="615.2" y="166.0" width="11" height="11" rx="2.5" fill="#ffffff" fill-opacity="0.07" style="animation-delay:0.64s"/>
  <rect class="cell" x="615.2" y="179.6" width="11" height="11" rx="2.5" fill="#ffffff" fill-opacity="0.07" style="animation-delay:0.64s"/>
  <rect class="cell" x="628.8" y="98.0" width="11" height="11" rx="2.5" fill="#ffffff" fill-opacity="0.07" style="animation-delay:0.65s"/>
  <rect class="cell" x="628.8" y="111.6" width="11" height="11" rx="2.5" fill="#ffffff" fill-opacity="0.07" style="animation-delay:0.65s"/>
  <rect class="cell" x="628.8" y="125.2" width="11" height="11" rx="2.5" fill="#ffffff" fill-opacity="0.07" style="animation-delay:0.65s"/>
  <rect class="cell" x="628.8" y="138.8" width="11" height="11" rx="2.5" fill="#ffffff" fill-opacity="0.07" style="animation-delay:0.65s"/>
  <rect class="cell" x="628.8" y="152.4" width="11" height="11" rx="2.5" fill="#ffffff" fill-opacity="0.07" style="animation-delay:0.65s"/>
  <rect class="cell" x="628.8" y="166.0" width="11" height="11" rx="2.5" fill="#ffffff" fill-opacity="0.07" style="animation-delay:0.65s"/>
  <rect class="cell" x="628.8" y="179.6" width="11" height="11" rx="2.5" fill="#ffffff" fill-opacity="0.07" style="animation-delay:0.65s"/>
  <rect class="cell" x="642.4" y="98.0" width="11" height="11" rx="2.5" fill="#ffffff" fill-opacity="0.07" style="animation-delay:0.66s"/>
  <rect class="cell" x="642.4" y="111.6" width="11" height="11" rx="2.5" fill="#ffffff" fill-opacity="0.07" style="animation-delay:0.66s"/>
  <rect class="cell" x="642.4" y="125.2" width="11" height="11" rx="2.5" fill="#ffffff" fill-opacity="0.07" style="animation-delay:0.66s"/>
  <rect class="cell" x="642.4" y="138.8" width="11" height="11" rx="2.5" fill="#ffffff" fill-opacity="0.07" style="animation-delay:0.66s"/>
  <rect class="cell" x="642.4" y="152.4" width="11" height="11" rx="2.5" fill="#ffffff" fill-opacity="0.07" style="animation-delay:0.66s"/>
  <rect class="cell" x="642.4" y="166.0" width="11" height="11" rx="2.5" fill="#ffffff" fill-opacity="0.07" style="animation-delay:0.66s"/>
  <rect class="cell" x="642.4" y="179.6" width="11" height="11" rx="2.5" fill="#ffffff" fill-opacity="0.07" style="animation-delay:0.66s"/>
  <rect class="cell" x="656.0" y="98.0" width="11" height="11" rx="2.5" fill="#ffffff" fill-opacity="0.07" style="animation-delay:0.67s"/>
  <rect class="cell" x="656.0" y="111.6" width="11" height="11" rx="2.5" fill="#ffffff" fill-opacity="0.07" style="animation-delay:0.67s"/>
  <rect class="cell" x="656.0" y="125.2" width="11" height="11" rx="2.5" fill="#ffffff" fill-opacity="0.07" style="animation-delay:0.67s"/>
  <rect class="cell" x="656.0" y="138.8" width="11" height="11" rx="2.5" fill="#ffffff" fill-opacity="0.07" style="animation-delay:0.67s"/>
  <rect class="cell" x="656.0" y="152.4" width="11" height="11" rx="2.5" fill="#ffffff" fill-opacity="0.07" style="animation-delay:0.67s"/>
  <rect class="cell" x="656.0" y="166.0" width="11" height="11" rx="2.5" fill="#ffffff" fill-opacity="0.07" style="animation-delay:0.67s"/>
  <rect class="cell" x="656.0" y="179.6" width="11" height="11" rx="2.5" fill="#ffffff" fill-opacity="0.07" style="animation-delay:0.67s"/>
  <rect class="cell" x="669.6" y="98.0" width="11" height="11" rx="2.5" fill="#ffffff" fill-opacity="0.07" style="animation-delay:0.67s"/>
  <rect class="cell" x="669.6" y="111.6" width="11" height="11" rx="2.5" fill="#ffffff" fill-opacity="0.07" style="animation-delay:0.67s"/>
  <rect class="cell" x="669.6" y="125.2" width="11" height="11" rx="2.5" fill="#ffffff" fill-opacity="0.07" style="animation-delay:0.67s"/>
  <rect class="cell" x="669.6" y="138.8" width="11" height="11" rx="2.5" fill="#ffffff" fill-opacity="0.07" style="animation-delay:0.67s"/>
  <rect class="cell" x="669.6" y="152.4" width="11" height="11" rx="2.5" fill="#ffffff" fill-opacity="0.07" style="animation-delay:0.67s"/>
  <rect class="cell" x="669.6" y="166.0" width="11" height="11" rx="2.5" fill="#ffffff" fill-opacity="0.07" style="animation-delay:0.67s"/>
  <rect class="cell" x="669.6" y="179.6" width="11" height="11" rx="2.5" fill="#ffffff" fill-opacity="0.07" style="animation-delay:0.67s"/>
  <rect class="cell" x="683.2" y="98.0" width="11" height="11" rx="2.5" fill="#ffffff" fill-opacity="0.07" style="animation-delay:0.68s"/>
  <rect class="cell" x="683.2" y="111.6" width="11" height="11" rx="2.5" fill="#ffffff" fill-opacity="0.07" style="animation-delay:0.68s"/>
  <rect class="cell" x="683.2" y="125.2" width="11" height="11" rx="2.5" fill="#ffffff" fill-opacity="0.07" style="animation-delay:0.68s"/>
  <rect class="cell" x="683.2" y="138.8" width="11" height="11" rx="2.5" fill="#ffffff" fill-opacity="0.07" style="animation-delay:0.68s"/>
  <rect class="cell" x="683.2" y="152.4" width="11" height="11" rx="2.5" fill="#ffffff" fill-opacity="0.07" style="animation-delay:0.68s"/>
  <rect class="cell" x="683.2" y="166.0" width="11" height="11" rx="2.5" fill="#ffffff" fill-opacity="0.07" style="animation-delay:0.68s"/>
  <rect class="cell" x="683.2" y="179.6" width="11" height="11" rx="2.5" fill="#ffffff" fill-opacity="0.07" style="animation-delay:0.68s"/>
  <rect class="cell" x="696.8" y="98.0" width="11" height="11" rx="2.5" fill="#ffffff" fill-opacity="0.07" style="animation-delay:0.69s"/>
  <rect class="cell" x="696.8" y="111.6" width="11" height="11" rx="2.5" fill="#ffffff" fill-opacity="0.07" style="animation-delay:0.69s"/>
  <rect class="cell" x="696.8" y="125.2" width="11" height="11" rx="2.5" fill="#ffffff" fill-opacity="0.07" style="animation-delay:0.69s"/>
  <rect class="cell" x="696.8" y="138.8" width="11" height="11" rx="2.5" fill="#ffffff" fill-opacity="0.07" style="animation-delay:0.69s"/>
  <rect class="cell" x="696.8" y="152.4" width="11" height="11" rx="2.5" fill="#ffffff" fill-opacity="0.07" style="animation-delay:0.69s"/>
  <rect class="cell" x="696.8" y="166.0" width="11" height="11" rx="2.5" fill="#ffffff" fill-opacity="0.07" style="animation-delay:0.69s"/>
  <rect class="cell" x="696.8" y="179.6" width="11" height="11" rx="2.5" fill="#ffffff" fill-opacity="0.07" style="animation-delay:0.69s"/>
  <rect class="cell" x="710.4" y="98.0" width="11" height="11" rx="2.5" fill="#ffffff" fill-opacity="0.07" style="animation-delay:0.69s"/>
  <rect class="cell" x="710.4" y="111.6" width="11" height="11" rx="2.5" fill="#ffffff" fill-opacity="0.74" style="animation-delay:0.69s"/>
  <rect class="cell" x="710.4" y="125.2" width="11" height="11" rx="2.5" fill="#ffffff" fill-opacity="0.28" style="animation-delay:0.69s"/>
  <rect class="cell" x="710.4" y="138.8" width="11" height="11" rx="2.5" fill="#ffffff" fill-opacity="0.07" style="animation-delay:0.69s"/>
  <rect class="cell" x="710.4" y="152.4" width="11" height="11" rx="2.5" fill="#ffffff" fill-opacity="0.07" style="animation-delay:0.69s"/>
  <rect class="cell" x="710.4" y="166.0" width="11" height="11" rx="2.5" fill="#ffffff" fill-opacity="0.07" style="animation-delay:0.69s"/>
  <rect class="cell" x="710.4" y="179.6" width="11" height="11" rx="2.5" fill="#ffffff" fill-opacity="0.07" style="animation-delay:0.69s"/>
  <rect class="cell" x="724.0" y="98.0" width="11" height="11" rx="2.5" fill="#ffffff" fill-opacity="0.07" style="animation-delay:0.70s"/>
  <rect class="cell" x="724.0" y="111.6" width="11" height="11" rx="2.5" fill="#ffffff" fill-opacity="0.07" style="animation-delay:0.70s"/>
  <rect class="cell" x="724.0" y="125.2" width="11" height="11" rx="2.5" fill="#ffffff" fill-opacity="0.5" style="animation-delay:0.70s"/>
  <rect class="cell" x="724.0" y="138.8" width="11" height="11" rx="2.5" fill="#ffffff" fill-opacity="0.07" style="animation-delay:0.70s"/>
  <rect class="cell" x="724.0" y="152.4" width="11" height="11" rx="2.5" fill="#ffffff" fill-opacity="0.07" style="animation-delay:0.70s"/>
  <rect class="cell" x="724.0" y="166.0" width="11" height="11" rx="2.5" fill="#ffffff" fill-opacity="0.07" style="animation-delay:0.70s"/>
  <rect class="cell" x="724.0" y="179.6" width="11" height="11" rx="2.5" fill="#ffffff" fill-opacity="0.07" style="animation-delay:0.70s"/>
  <rect class="cell" x="737.6" y="98.0" width="11" height="11" rx="2.5" fill="#ffffff" fill-opacity="0.07" style="animation-delay:0.71s"/>
  <rect class="cell" x="737.6" y="111.6" width="11" height="11" rx="2.5" fill="#ffffff" fill-opacity="0.07" style="animation-delay:0.71s"/>
  <rect class="cell" x="737.6" y="125.2" width="11" height="11" rx="2.5" fill="#ffffff" fill-opacity="0.07" style="animation-delay:0.71s"/>
  <rect class="cell" x="737.6" y="138.8" width="11" height="11" rx="2.5" fill="#ffffff" fill-opacity="0.07" style="animation-delay:0.71s"/>
  <rect class="cell" x="737.6" y="152.4" width="11" height="11" rx="2.5" fill="#ffffff" fill-opacity="0.5" style="animation-delay:0.71s"/>
  <rect class="cell" x="737.6" y="166.0" width="11" height="11" rx="2.5" fill="#ffffff" fill-opacity="0.07" style="animation-delay:0.71s"/>
  <rect class="cell" x="737.6" y="179.6" width="11" height="11" rx="2.5" fill="#ffffff" fill-opacity="0.07" style="animation-delay:0.71s"/>
  <rect class="cell" x="751.2" y="98.0" width="11" height="11" rx="2.5" fill="#ffffff" fill-opacity="0.07" style="animation-delay:0.71s"/>
  <rect class="cell" x="751.2" y="111.6" width="11" height="11" rx="2.5" fill="#ffffff" fill-opacity="0.07" style="animation-delay:0.71s"/>
  <rect class="cell" x="751.2" y="125.2" width="11" height="11" rx="2.5" fill="#ffffff" fill-opacity="0.74" style="animation-delay:0.71s"/>
  <rect class="cell" x="751.2" y="138.8" width="11" height="11" rx="2.5" fill="#ffffff" fill-opacity="0.07" style="animation-delay:0.71s"/>
  <rect class="cell" x="751.2" y="152.4" width="11" height="11" rx="2.5" fill="#ffffff" fill-opacity="0.07" style="animation-delay:0.71s"/>
  <rect class="cell" x="751.2" y="166.0" width="11" height="11" rx="2.5" fill="#ffffff" fill-opacity="0.07" style="animation-delay:0.71s"/>
  <rect class="cell" x="751.2" y="179.6" width="11" height="11" rx="2.5" fill="#ffffff" fill-opacity="0.07" style="animation-delay:0.71s"/>
  <g class="f d3">
  <path d="M728.6 223.2Q728.2 223.2 727.9 223Q727.6 222.9 727.4 222.6Q727.2 222.3 727.2 221.9V217.7H725.7V217H728V221.9Q728 222.2 728.2 222.3Q728.3 222.5 728.6 222.5H730.1V223.2Z M733.3 223.3Q732.8 223.3 732.4 223.1Q732 222.8 731.7 222.4Q731.5 222 731.5 221.5V220.2Q731.5 219.7 731.7 219.3Q732 218.9 732.4 218.7Q732.8 218.4 733.3 218.4Q733.9 218.4 734.3 218.7Q734.7 218.9 735 219.3Q735.2 219.7 735.2 220.2V221H732.3V221.5Q732.3 222.1 732.6 222.3Q732.8 222.6 733.3 222.6Q733.8 222.6 734.1 222.5Q734.3 222.3 734.4 222H735.2Q735.1 222.6 734.6 222.9Q734.1 223.3 733.3 223.3ZM734.4 220.5V220.2Q734.4 219.7 734.2 219.4Q733.9 219.1 733.3 219.1Q732.8 219.1 732.6 219.4Q732.3 219.7 732.3 220.2V220.5H734.5Z M738.6 223.3Q738.1 223.3 737.8 223.1Q737.4 223 737.2 222.7Q737 222.4 737 222.1H737.7Q737.8 222.3 738 222.4Q738.2 222.6 738.6 222.6H739Q739.4 222.6 739.6 222.4Q739.9 222.2 739.9 221.9Q739.9 221.6 739.7 221.4Q739.5 221.3 739.1 221.2L738.4 221.1Q737.7 221 737.4 220.7Q737.1 220.4 737.1 219.8Q737.1 219.1 737.5 218.8Q737.9 218.5 738.7 218.5H739Q739.7 218.5 740.1 218.8Q740.5 219.1 740.6 219.6H739.8Q739.8 219.4 739.5 219.3Q739.3 219.1 739 219.1H738.7Q738.2 219.1 738 219.3Q737.8 219.5 737.8 219.8Q737.8 220.1 738 220.2Q738.2 220.3 738.5 220.4L739.2 220.5Q739.9 220.6 740.3 220.9Q740.6 221.3 740.6 221.9Q740.6 222.5 740.2 222.9Q739.8 223.3 739 223.3Z M744 223.3Q743.5 223.3 743.2 223.1Q742.8 223 742.6 222.7Q742.4 222.4 742.4 222.1H743.1Q743.2 222.3 743.4 222.4Q743.6 222.6 744 222.6H744.4Q744.8 222.6 745 222.4Q745.3 222.2 745.3 221.9Q745.3 221.6 745.1 221.4Q744.9 221.3 744.5 221.2L743.8 221.1Q743.1 221 742.8 220.7Q742.5 220.4 742.5 219.8Q742.5 219.1 742.9 218.8Q743.3 218.5 744.1 218.5H744.4Q745.1 218.5 745.5 218.8Q745.9 219.1 746 219.6H745.2Q745.2 219.4 744.9 219.3Q744.7 219.1 744.4 219.1H744.1Q743.6 219.1 743.4 219.3Q743.2 219.5 743.2 219.8Q743.2 220.1 743.4 220.2Q743.6 220.3 743.9 220.4L744.6 220.5Q745.3 220.6 745.7 220.9Q746 221.3 746 221.9Q746 222.5 745.6 222.9Q745.2 223.3 744.4 223.3Z" fill="#6e7681"/>
    <rect x="754.7" y="215.2" width="11" height="11" rx="2.5" fill="#ffffff" fill-opacity="0.07"/>
    <rect x="768.7" y="215.2" width="11" height="11" rx="2.5" fill="#ffffff" fill-opacity="0.28"/>
    <rect x="782.7" y="215.2" width="11" height="11" rx="2.5" fill="#ffffff" fill-opacity="0.5"/>
    <rect x="796.7" y="215.2" width="11" height="11" rx="2.5" fill="#ffffff" fill-opacity="0.74"/>
    <rect x="810.7" y="215.2" width="11" height="11" rx="2.5" fill="#ffffff" fill-opacity="1.0"/>
  <path d="M830.3 223.2V218.5H830.9V219.1H831.1L831 219.3Q831 218.9 831.2 218.7Q831.4 218.4 831.7 218.4Q832.1 218.4 832.3 218.7Q832.6 219 832.6 219.5L832.3 219.1H832.7L832.5 219.3Q832.5 218.9 832.7 218.7Q833 218.4 833.3 218.4Q833.8 218.4 834 218.8Q834.2 219.1 834.2 219.6V223.2H833.5V219.6Q833.5 219.3 833.4 219.2Q833.3 219 833 219Q832.8 219 832.7 219.2Q832.6 219.3 832.6 219.6V223.2H831.9V219.6Q831.9 219.3 831.8 219.2Q831.7 219 831.4 219Q831.2 219 831.1 219.2Q831 219.3 831 219.6V223.2Z M837.6 223.3Q837.1 223.3 836.7 223.1Q836.3 222.8 836 222.4Q835.8 222 835.8 221.5V220.2Q835.8 219.7 836 219.3Q836.3 218.9 836.7 218.7Q837.1 218.5 837.6 218.5Q838.2 218.5 838.6 218.7Q839 218.9 839.3 219.3Q839.5 219.7 839.5 220.2V221.5Q839.5 222 839.3 222.4Q839 222.8 838.6 223.1Q838.2 223.3 837.6 223.3ZM837.6 222.6Q838.2 222.6 838.4 222.3Q838.7 222 838.7 221.5V220.2Q838.7 219.7 838.4 219.4Q838.2 219.1 837.6 219.1Q837.2 219.1 836.9 219.4Q836.6 219.7 836.6 220.2V221.5Q836.6 222 836.9 222.3Q837.2 222.6 837.6 222.6Z M841.4 223.2V218.5H842.2V219.4H842.4L842.1 220Q842.1 219.2 842.5 218.8Q842.8 218.4 843.4 218.4Q844.2 218.4 844.6 218.9Q845 219.4 845 220.2V220.4H844.3V220.2Q844.3 219.7 844 219.4Q843.7 219.1 843.2 219.1Q842.8 219.1 842.5 219.4Q842.2 219.7 842.2 220.2V223.2Z M848.4 223.3Q847.9 223.3 847.5 223.1Q847.1 222.8 846.8 222.4Q846.6 222 846.6 221.5V220.2Q846.6 219.7 846.8 219.3Q847.1 218.9 847.5 218.7Q847.9 218.4 848.4 218.4Q849 218.4 849.4 218.7Q849.8 218.9 850.1 219.3Q850.3 219.7 850.3 220.2V221H847.4V221.5Q847.4 222.1 847.7 222.3Q847.9 222.6 848.4 222.6Q848.9 222.6 849.2 222.5Q849.4 222.3 849.5 222H850.3Q850.2 222.6 849.7 222.9Q849.2 223.3 848.4 223.3ZM849.5 220.5V220.2Q849.5 219.7 849.3 219.4Q849 219.1 848.4 219.1Q847.9 219.1 847.7 219.4Q847.4 219.7 847.4 220.2V220.5H849.6Z" fill="#6e7681"/>
  </g>
  <path class="f d3" d="M24.9 224.8Q24.2 224.8 23.6 224.5Q23 224.2 22.7 223.6Q22.4 223 22.4 222.2V219.1Q22.4 218.3 22.7 217.8Q23 217.2 23.5 216.9Q24.1 216.5 24.8 216.5Q25.5 216.5 26 216.8Q26.5 217.1 26.8 217.6Q27 218.1 27 218.7V222.6H26.4V222.1H26.1L26.3 221.9Q26.3 222.3 26.1 222.5Q25.8 222.7 25.4 222.7Q24.8 222.7 24.5 222.3Q24.2 222 24.2 221.3V220.2Q24.2 219.5 24.5 219.2Q24.8 218.8 25.4 218.8Q25.8 218.8 26.1 219Q26.3 219.3 26.3 219.6L26.2 219.4H26.4L26.3 218.8V218.7Q26.3 218.2 26.1 217.9Q26 217.5 25.6 217.3Q25.3 217.2 24.8 217.2Q24 217.2 23.6 217.7Q23.1 218.2 23.1 219.1V222.2Q23.1 223.1 23.6 223.6Q24.1 224.1 24.9 224.1H25.6V224.8ZM25.6 222.1Q26 222.1 26.1 221.9Q26.3 221.7 26.3 221.2V220.2Q26.3 219.8 26.1 219.6Q26 219.4 25.6 219.4Q25.2 219.4 25.1 219.6Q24.9 219.8 24.9 220.2V221.3Q24.9 221.7 25.1 221.9Q25.2 222.1 25.6 222.1Z M29 223.2V216.6H29.8V219.4H30.8L32.3 216.6H33.1L31.5 219.8L33.2 223.2H32.3L30.8 220.2H29.8V223.2Z M37.1 223.3Q36.2 223.3 35.7 222.8Q35.2 222.3 35.2 221.4V218.2H36V221.4Q36 222 36.3 222.3Q36.6 222.6 37.1 222.6Q37.6 222.6 37.9 222.3Q38.2 222 38.2 221.4V218.2H39V221.4Q39 222.3 38.5 222.8Q37.9 223.3 37.1 223.3Z M41.2 223.2V218.2H41.9V218.8H42.1L41.9 219.1Q41.9 218.6 42.2 218.4Q42.4 218.2 42.8 218.2Q43.2 218.2 43.4 218.5Q43.6 218.8 43.6 219.3L43.4 218.8H43.8L43.6 219.1Q43.6 218.6 43.8 218.4Q44 218.2 44.4 218.2Q44.9 218.2 45.1 218.5Q45.4 218.9 45.4 219.4V223.2H44.7V219.4Q44.7 219.1 44.5 219Q44.4 218.8 44.1 218.8Q43.9 218.8 43.8 218.9Q43.6 219.1 43.6 219.4V223.2H43V219.4Q43 219.1 42.8 218.9Q42.7 218.8 42.4 218.8Q42.2 218.8 42.1 218.9Q41.9 219.1 41.9 219.4V223.2Z M49.1 223.3Q48.3 223.3 47.8 222.9Q47.4 222.5 47.4 221.8Q47.4 221.1 47.8 220.7Q48.3 220.3 49 220.3H50.6V219.8Q50.6 219.4 50.3 219.1Q50 218.9 49.5 218.9Q49.1 218.9 48.8 219.1Q48.5 219.2 48.4 219.6H47.6Q47.7 218.9 48.2 218.5Q48.8 218.2 49.5 218.2Q50.4 218.2 50.9 218.6Q51.4 219 51.4 219.8V223.2H50.6V222.3H50.5L50.6 222.1Q50.6 222.7 50.2 223Q49.8 223.3 49.1 223.3ZM49.3 222.7Q49.8 222.7 50.2 222.4Q50.6 222.1 50.6 221.6V220.9H49.1Q48.7 220.9 48.4 221.1Q48.2 221.4 48.2 221.8Q48.2 222.2 48.5 222.4Q48.8 222.7 49.3 222.7Z M54 223.2V218.2H54.8V219.2H55L54.7 219.8Q54.7 219 55.1 218.6Q55.4 218.2 56.1 218.2Q56.9 218.2 57.3 218.7Q57.8 219.1 57.8 220V220.3H57V220Q57 219.5 56.7 219.2Q56.4 218.8 55.9 218.8Q55.4 218.8 55.1 219.2Q54.8 219.5 54.8 220V223.2Z M60 223.2V216.6H62.1Q62.8 216.6 63.2 216.9Q63.7 217.1 63.9 217.5Q64.2 218 64.2 218.6Q64.2 219.1 63.9 219.6Q63.7 220 63.2 220.3Q62.8 220.5 62.1 220.5H60.8V223.2ZM60.8 219.8H62.1Q62.7 219.8 63 219.4Q63.3 219.1 63.3 218.6Q63.3 218 63 217.7Q62.7 217.4 62.1 217.4H60.8Z M66.4 223.2V218.2H67.2V219.2H67.4L67.1 219.8Q67.1 219 67.5 218.6Q67.8 218.2 68.5 218.2Q69.3 218.2 69.7 218.7Q70.2 219.1 70.2 220V220.3H69.4V220Q69.4 219.5 69.1 219.2Q68.8 218.8 68.3 218.8Q67.8 218.8 67.5 219.2Q67.2 219.5 67.2 220V223.2Z M72.4 223.2V222.5H74.1V219H72.6V218.2H74.9V222.5H76.6V223.2ZM74.4 217.4Q74.1 217.4 74 217.2Q73.8 217.1 73.8 216.8Q73.8 216.5 74 216.4Q74.1 216.2 74.4 216.2Q74.7 216.2 74.9 216.4Q75.1 216.5 75.1 216.8Q75.1 217.1 74.9 217.2Q74.7 217.4 74.4 217.4Z M79.4 224.8 80.1 222.9 78.3 218.2H79.2L80.3 221.3Q80.4 221.5 80.5 221.7Q80.5 221.9 80.6 222Q80.6 221.9 80.6 221.7Q80.7 221.5 80.8 221.3L81.8 218.2H82.7L80.3 224.8Z M86.3 223.3Q85.5 223.3 85 222.9Q84.6 222.5 84.6 221.8Q84.6 221.1 85 220.7Q85.5 220.3 86.3 220.3H87.8V219.8Q87.8 219.4 87.5 219.1Q87.2 218.9 86.7 218.9Q86.3 218.9 86 219.1Q85.7 219.2 85.6 219.6H84.8Q84.9 218.9 85.4 218.5Q86 218.2 86.7 218.2Q87.6 218.2 88.1 218.6Q88.6 219 88.6 219.8V223.2H87.8V222.3H87.7L87.8 222.1Q87.8 222.7 87.4 223Q87 223.3 86.3 223.3ZM86.5 222.7Q87 222.7 87.4 222.4Q87.8 222.1 87.8 221.6V220.9H86.3Q85.9 220.9 85.6 221.1Q85.4 221.4 85.4 221.8Q85.4 222.2 85.7 222.4Q86 222.7 86.5 222.7Z M90.8 223.2V218.2H91.5V218.8H91.7L91.5 219.1Q91.5 218.6 91.8 218.4Q92 218.2 92.4 218.2Q92.8 218.2 93 218.5Q93.2 218.8 93.2 219.3L93 218.8H93.4L93.2 219.1Q93.2 218.6 93.4 218.4Q93.6 218.2 94 218.2Q94.5 218.2 94.7 218.5Q95 218.9 95 219.4V223.2H94.3V219.4Q94.3 219.1 94.1 219Q94 218.8 93.7 218.8Q93.5 218.8 93.4 218.9Q93.2 219.1 93.2 219.4V223.2H92.6V219.4Q92.6 219.1 92.4 218.9Q92.3 218.8 92 218.8Q91.8 218.8 91.7 218.9Q91.5 219.1 91.5 219.4V223.2Z M97.2 223.2V222.5H99V217.3L97.2 218.6V217.7L98.7 216.6H99.8V222.5H101.3V223.2Z M103.4 223.2V222.4L105.4 220.2Q105.9 219.7 106.2 219.3Q106.4 218.8 106.4 218.4Q106.4 217.9 106.1 217.6Q105.8 217.3 105.3 217.3Q104.7 217.3 104.4 217.6Q104.1 217.9 104.1 218.5H103.2Q103.3 217.9 103.5 217.4Q103.8 217 104.2 216.8Q104.7 216.5 105.3 216.5Q105.9 216.5 106.3 216.8Q106.8 217 107 217.4Q107.2 217.8 107.2 218.4Q107.2 219 106.9 219.5Q106.6 220.1 106 220.8L104.3 222.5H107.3V223.2Z M111.4 223.3Q110.8 223.3 110.4 223.1Q109.9 222.8 109.7 222.4Q109.4 222 109.4 221.4H110.2Q110.2 221.9 110.6 222.3Q110.9 222.6 111.4 222.6Q112 222.6 112.3 222.2Q112.6 221.9 112.6 221.4V220.9Q112.6 220.4 112.3 220.1Q112 219.8 111.4 219.8H110.7V219L112.4 217.4H109.7V216.6H113.2V217.4L111.4 219.1V219Q112.3 219 112.9 219.6Q113.4 220.1 113.4 220.9V221.4Q113.4 222 113.1 222.4Q112.9 222.8 112.4 223.1Q112 223.3 111.4 223.3Z" fill="#6e7681"/>
</svg>
