<svg xmlns="http://www.w3.org/2000/svg" width="880" height="40" viewBox="0 0 880 40" role="img">
  <rect x="0" y="9" width="34.8" height="22" rx="3" fill="#000000"/>
  <path d="M12.9 24.6Q12 24.6 11.2 24.3Q10.5 23.9 10.2 23.3Q9.8 22.6 9.8 21.8V17.7Q9.8 16.9 10.2 16.2Q10.5 15.6 11.2 15.2Q12 14.9 12.9 14.9Q13.9 14.9 14.6 15.2Q15.3 15.6 15.6 16.2Q16 16.9 16 17.7V21.8Q16 22.6 15.6 23.3Q15.3 23.9 14.6 24.3Q13.9 24.6 12.9 24.6ZM12.9 22.9Q13.5 22.9 13.9 22.6Q14.2 22.3 14.2 21.8V17.7Q14.2 17.2 13.9 16.9Q13.5 16.6 12.9 16.6Q12.3 16.6 11.9 16.9Q11.6 17.2 11.6 17.7V21.8Q11.6 22.3 12 22.6Q12.3 22.9 12.9 22.9ZM12.9 20.7Q12.5 20.7 12.2 20.4Q12 20.1 12 19.7Q12 19.3 12.2 19.1Q12.5 18.8 12.9 18.8Q13.3 18.8 13.6 19.1Q13.8 19.3 13.8 19.7Q13.8 20.1 13.6 20.4Q13.3 20.7 12.9 20.7Z M18.9 24.5V22.7L21.9 19.8Q22.5 19.2 22.7 18.8Q23 18.4 23 17.8Q23 17.3 22.7 16.9Q22.4 16.6 21.8 16.6Q21.3 16.6 20.9 17Q20.6 17.3 20.6 17.9H18.6Q18.6 17 19 16.3Q19.4 15.6 20.2 15.3Q20.9 14.9 21.9 14.9Q22.8 14.9 23.5 15.2Q24.2 15.6 24.6 16.2Q24.9 16.8 24.9 17.6Q24.9 18.5 24.5 19.4Q24 20.2 23 21.2L21.3 22.7H25V24.5Z" fill="#ffffff"/>
  <path d="M53 24.6Q52 24.6 51.2 24.3Q50.4 23.9 50 23.3Q49.6 22.6 49.6 21.8H51.3Q51.3 22.4 51.8 22.7Q52.3 23.1 53 23.1Q53.8 23.1 54.2 22.8Q54.7 22.4 54.7 21.8Q54.7 21.3 54.4 20.9Q54 20.5 53.5 20.4L52.3 20Q51.1 19.7 50.5 18.9Q49.8 18.1 49.8 17Q49.8 16.1 50.2 15.5Q50.6 14.8 51.3 14.5Q52 14.1 53 14.1Q54.5 14.1 55.4 14.9Q56.2 15.7 56.2 17H54.5Q54.5 16.4 54.1 16Q53.7 15.7 53 15.7Q52.3 15.7 51.9 16Q51.6 16.3 51.6 16.9Q51.6 17.4 51.8 17.8Q52.1 18.2 52.7 18.3L53.9 18.7Q55.1 19 55.8 19.8Q56.4 20.6 56.4 21.7Q56.4 22.6 56 23.2Q55.6 23.9 54.8 24.3Q54 24.6 53 24.6Z M63.9 24.5V15.9H61.2V14.3H68.4V15.9H65.7V24.5Z M72.9 24.5 75.5 14.3H77.7L80.3 24.5H78.5L78 22H75.2L74.7 24.5ZM75.6 20.6H77.6L77 17.9Q76.9 17.2 76.8 16.6Q76.6 16.1 76.6 15.8Q76.6 16.1 76.5 16.6Q76.3 17.2 76.2 17.8Z M88.5 24.6Q87.5 24.6 86.7 24.3Q86 23.9 85.6 23.2Q85.2 22.5 85.2 21.6V17.2Q85.2 16.2 85.6 15.6Q86 14.9 86.7 14.5Q87.5 14.1 88.5 14.1Q89.4 14.1 90.2 14.5Q90.9 14.9 91.3 15.6Q91.7 16.2 91.7 17.2H89.9Q89.9 16.4 89.6 16.1Q89.2 15.7 88.5 15.7Q87.7 15.7 87.3 16.1Q87 16.4 87 17.1V21.6Q87 22.3 87.3 22.7Q87.7 23.1 88.5 23.1Q89.2 23.1 89.6 22.7Q89.9 22.3 89.9 21.6H91.7Q91.7 22.5 91.3 23.2Q90.9 23.9 90.2 24.3Q89.4 24.6 88.5 24.6Z M97.1 24.5V14.3H98.8V18.4H100L101.9 14.3H103.9L101.6 19.2L104 24.5H102L100 20H98.8V24.5Z" fill="#000000"/>
  <rect x="120.4" y="19" width="759.6" height="1" fill="#d0d7de"/>

</svg>
